<svg xmlns="http://www.w3.org/2000/svg" width="33.283" height="20" viewBox="0 0 33.283 20">
    <defs>
        <style>
            .cls-2,.cls-4{fill:#be2033;fill-rule:evenodd}.cls-4{fill:#fff}
        </style>
    </defs>
    <g id="ic_eng" transform="translate(-255.999 -562.499)">
        <g id="_233009080" transform="translate(255.999 562.499)">
            <path id="_233013736" fill="#eee" d="M0 0H33.283V20H0z" transform="translate(0 0)"/>
            <path id="_233013136" d="M891.066 564.037h-19.954V562.5h19.954z" class="cls-2" transform="translate(-857.784 -562.499)"/>
            <path id="_233013616" d="M891.066 703.592h-19.954v-1.538h19.954z" class="cls-2" transform="translate(-857.784 -699.03)"/>
            <path id="_233013544" d="M891.066 843.55h-19.954v-1.538h19.954z" class="cls-2" transform="translate(-857.784 -835.955)"/>
            <path id="_233013640" d="M891.066 981.073h-19.954v-1.538h19.954z" class="cls-2" transform="translate(-857.784 -970.498)"/>
            <path id="_233012896" d="M289.282 1118.589H256v-1.538h33.283z" class="cls-2" transform="translate(-255.999 -1105.034)"/>
            <path id="_233012272" d="M289.282 1265.858H256v-1.538h33.283z" class="cls-2" transform="translate(-255.999 -1249.113)"/>
            <path id="_233012728" d="M289.282 1416.048H256v-1.538h33.283z" class="cls-2" transform="translate(-255.999 -1396.048)"/>
            <path id="_233012464" fill="#212f64" fill-rule="evenodd" d="M271.293 573.074H256V562.5h15.294z" transform="translate(-255.999 -562.499)"/>
            <path id="_233012416" d="M287.954 582.708h.445l.163-.467.181.467h.441l-.335.306.124.465-.4-.26-.377.26.11-.465z" class="cls-4" transform="translate(-287.262 -581.813)"/>
            <path id="_233012584" d="M403.552 582.708H404l.163-.467.181.467h.441l-.335.306.123.465-.4-.26-.377.26.11-.465z" class="cls-4" transform="translate(-400.355 -581.813)"/>
            <path id="_233012512" d="M523.22 582.708h.445l.163-.467.181.467h.441l-.335.306.123.465-.4-.26-.377.26.11-.465z" class="cls-4" transform="translate(-517.43 -581.813)"/>
            <path id="_233012680" d="M638.821 582.708h.445l.163-.467.181.467h.441l-.335.306.123.465-.4-.26-.377.26.11-.465z" class="cls-4" transform="translate(-630.526 -581.813)"/>
            <path id="_233012824" d="M755.234 582.708h.445l.163-.467.181.467h.441l-.335.306.123.465-.4-.26-.377.26.11-.465z" class="cls-4" transform="translate(-744.416 -581.813)"/>
            <path id="_233012488" d="M874.09 582.708h.445l.163-.467.181.467h.441l-.335.306.124.465-.4-.26-.377.26.11-.465z" class="cls-4" transform="translate(-860.697 -581.813)"/>
            <path id="_233011528" d="M345.751 634.2h.445l.163-.468.181.468h.441l-.335.306.124.465-.4-.26-.377.26.11-.465z" class="cls-4" transform="translate(-343.806 -632.187)"/>
            <path id="_233011840" d="M461.353 634.2h.445l.163-.468.181.468h.441l-.335.306.124.465-.4-.26-.377.26.11-.465z" class="cls-4" transform="translate(-456.903 -632.187)"/>
            <path id="_233012056" d="M581.021 634.2h.445l.163-.468.181.468h.441l-.335.306.124.465-.4-.26-.377.26.11-.465z" class="cls-4" transform="translate(-573.978 -632.187)"/>
            <path id="_233011792" d="M696.619 634.2h.445l.163-.468.181.468h.441l-.335.306.123.465-.4-.26-.377.26.11-.465z" class="cls-4" transform="translate(-687.071 -632.187)"/>
            <path id="_233011624" d="M813.036 634.2h.445l.163-.468.181.468h.441l-.335.306.124.465-.4-.26-.377.26.11-.465z" class="cls-4" transform="translate(-800.966 -632.187)"/>
            <path id="_233011888" d="M287.954 679.582h.445l.163-.468.181.468h.441l-.335.306.124.465-.4-.26-.377.26.11-.465z" class="cls-4" transform="translate(-287.262 -676.587)"/>
            <path id="_233011720" d="M403.552 679.582H404l.163-.468.181.468h.441l-.335.306.123.465-.4-.26-.377.26.11-.465z" class="cls-4" transform="translate(-400.355 -676.587)"/>
            <path id="_233011648" d="M523.22 679.582h.445l.163-.468.181.468h.441l-.335.306.123.465-.4-.26-.377.26.11-.465z" class="cls-4" transform="translate(-517.43 -676.587)"/>
            <path id="_233011480" d="M638.821 679.582h.445l.163-.468.181.468h.441l-.335.306.123.465-.4-.26-.377.26.11-.465z" class="cls-4" transform="translate(-630.526 -676.587)"/>
            <path id="_233012128" d="M755.234 679.582h.445l.163-.468.181.468h.441l-.335.306.123.465-.4-.26-.377.26.11-.465z" class="cls-4" transform="translate(-744.416 -676.587)"/>
            <path id="_233012104" d="M874.09 679.582h.445l.163-.468.181.468h.441l-.335.306.124.465-.4-.26-.377.26.11-.465z" class="cls-4" transform="translate(-860.697 -676.587)"/>
            <path id="_233011096" d="M345.751 731.073h.445l.163-.467.181.467h.441l-.335.306.124.465-.4-.26-.377.26.11-.465z" class="cls-4" transform="translate(-343.806 -726.963)"/>
            <path id="_233010712" d="M461.353 731.073h.445l.163-.467.181.467h.441l-.335.306.124.465-.4-.26-.377.26.11-.465z" class="cls-4" transform="translate(-456.903 -726.963)"/>
            <path id="_233010904" d="M581.021 731.073h.445l.163-.467.181.467h.441l-.335.306.124.465-.4-.26-.377.26.11-.465z" class="cls-4" transform="translate(-573.978 -726.963)"/>
            <path id="_233010736" d="M696.619 731.073h.445l.163-.467.181.467h.441l-.335.306.123.465-.4-.26-.377.26.11-.465z" class="cls-4" transform="translate(-687.071 -726.963)"/>
            <path id="_233011264" d="M813.036 731.073h.445l.163-.467.181.467h.441l-.335.306.124.465-.4-.26-.377.26.11-.465z" class="cls-4" transform="translate(-800.966 -726.963)"/>
            <path id="_233011456" d="M287.954 778.086h.445l.163-.467.181.467h.441l-.335.306.124.465-.4-.26-.377.26.11-.465z" class="cls-4" transform="translate(-287.262 -772.958)"/>
            <path id="_233011312" d="M403.552 778.086H404l.163-.467.181.467h.441l-.335.306.123.465-.4-.26-.377.26.11-.465z" class="cls-4" transform="translate(-400.355 -772.958)"/>
            <path id="_233011408" d="M523.22 778.086h.445l.163-.467.181.467h.441l-.335.306.123.465-.4-.26-.377.26.11-.465z" class="cls-4" transform="translate(-517.43 -772.958)"/>
            <path id="_233011144" d="M638.821 778.086h.445l.163-.467.181.467h.441l-.335.306.123.465-.4-.26-.377.26.11-.465z" class="cls-4" transform="translate(-630.526 -772.958)"/>
            <path id="_233011048" d="M755.234 778.086h.445l.163-.467.181.467h.441l-.335.306.123.465-.4-.26-.377.26.11-.465z" class="cls-4" transform="translate(-744.416 -772.958)"/>
            <path id="_233010136" d="M874.09 778.086h.445l.163-.467.181.467h.441l-.335.306.124.465-.4-.26-.377.26.11-.465z" class="cls-4" transform="translate(-860.697 -772.958)"/>
            <path id="_233009968" d="M345.751 829.578h.445l.163-.468.181.468h.441l-.335.306.124.465-.4-.26-.377.26.11-.465z" class="cls-4" transform="translate(-343.806 -823.334)"/>
            <path id="_233010496" d="M461.353 829.578h.445l.163-.468.181.468h.441l-.335.306.124.465-.4-.26-.377.26.11-.465z" class="cls-4" transform="translate(-456.903 -823.334)"/>
            <path id="_233010088" d="M581.021 829.578h.445l.163-.468.181.468h.441l-.335.306.124.465-.4-.26-.377.26.11-.465z" class="cls-4" transform="translate(-573.978 -823.334)"/>
            <path id="_233010280" d="M696.619 829.578h.445l.163-.468.181.468h.441l-.335.306.123.465-.4-.26-.377.26.11-.465z" class="cls-4" transform="translate(-687.071 -823.334)"/>
            <path id="_233010184" d="M813.036 829.578h.445l.163-.468.181.468h.441l-.335.306.124.465-.4-.26-.377.26.11-.465z" class="cls-4" transform="translate(-800.966 -823.334)"/>
            <path id="_233010112" d="M287.954 875.166h.445l.163-.468.181.468h.441l-.335.306.124.465-.4-.26-.377.26.11-.465z" class="cls-4" transform="translate(-287.262 -867.933)"/>
            <path id="_233010400" d="M403.552 875.166H404l.163-.468.181.468h.441l-.335.306.123.465-.4-.26-.377.26.11-.465z" class="cls-4" transform="translate(-400.355 -867.933)"/>
            <path id="_233010616" d="M523.22 875.166h.445l.163-.468.181.468h.441l-.335.306.123.465-.4-.26-.377.26.11-.465z" class="cls-4" transform="translate(-517.43 -867.933)"/>
            <path id="_233010568" d="M638.821 875.166h.445l.163-.468.181.468h.441l-.335.306.123.465-.4-.26-.377.26.11-.465z" class="cls-4" transform="translate(-630.526 -867.933)"/>
            <path id="_233010688" d="M755.234 875.166h.445l.163-.468.181.468h.441l-.335.306.123.465-.4-.26-.377.26.11-.465z" class="cls-4" transform="translate(-744.416 -867.933)"/>
            <path id="_233009224" d="M874.09 875.166h.445l.163-.468.181.468h.441l-.335.306.124.465-.4-.26-.377.26.11-.465z" class="cls-4" transform="translate(-860.697 -867.933)"/>
            <path id="_233009200" d="M287.954 971.23h.445l.163-.467.181.467h.441l-.335.307.124.465-.4-.26-.377.26.11-.465z" class="cls-4" transform="translate(-287.262 -961.917)"/>
            <path id="_233009800" d="M403.552 971.23H404l.163-.467.181.467h.441l-.335.307.123.465-.4-.26-.377.26.11-.465z" class="cls-4" transform="translate(-400.355 -961.917)"/>
            <path id="_233009728" d="M523.22 971.23h.445l.163-.467.181.467h.441l-.335.307.123.465-.4-.26-.377.26.11-.465z" class="cls-4" transform="translate(-517.43 -961.917)"/>
            <path id="_233009584" d="M638.821 971.23h.445l.163-.467.181.467h.441l-.335.307.123.465-.4-.26-.377.26.11-.465z" class="cls-4" transform="translate(-630.526 -961.917)"/>
            <path id="_233009488" d="M755.234 971.23h.445l.163-.467.181.467h.441l-.335.307.123.465-.4-.26-.377.26.11-.465z" class="cls-4" transform="translate(-744.416 -961.917)"/>
            <path id="_233009680" d="M874.09 971.23h.445l.163-.467.181.467h.441l-.335.307.124.465-.4-.26-.377.26.11-.465z" class="cls-4" transform="translate(-860.697 -961.917)"/>
            <path id="_233009752" d="M345.751 926.657h.445l.163-.467.181.467h.441l-.335.307.124.465-.4-.26-.377.26.11-.465z" class="cls-4" transform="translate(-343.806 -918.309)"/>
            <path id="_233009848" d="M461.353 926.657h.445l.163-.467.181.467h.441l-.335.307.124.465-.4-.26-.377.26.11-.465z" class="cls-4" transform="translate(-456.903 -918.309)"/>
            <path id="_233009536" d="M581.021 926.657h.445l.163-.467.181.467h.441l-.335.307.124.465-.4-.26-.377.26.11-.465z" class="cls-4" transform="translate(-573.978 -918.309)"/>
            <path id="_233008720" d="M696.619 926.657h.445l.163-.467.181.467h.441l-.335.307.123.465-.4-.26-.377.26.11-.465z" class="cls-4" transform="translate(-687.071 -918.309)"/>
            <path id="_233009104" d="M813.036 926.657h.445l.163-.467.181.467h.441l-.335.307.124.465-.4-.26-.377.26.11-.465z" class="cls-4" transform="translate(-800.966 -918.309)"/>
        </g>
    </g>
</svg>
