<svg xmlns="http://www.w3.org/2000/svg" width="33.283" height="20" viewBox="0 0 33.283 20">
    <defs>
        <style>
            .cls-2{fill-rule:evenodd}
        </style>
    </defs>
    <g id="ic_kor" transform="translate(-255.999 -562.5)">
        <path id="사각형_657" fill="#eee" d="M0 0H33.283V20H0z" transform="translate(255.999 562.5)"/>
        <path id="패스_563" d="M576.646 679.867l2.589-3.883-.647-.431-2.588 3.883z" class="cls-2" transform="translate(-313.066 -110.603)"/>
        <path id="패스_564" d="M621.448 709.734l2.589-3.883-.647-.431-2.59 3.88z" class="cls-2" transform="translate(-356.897 -139.823)"/>
        <path id="패스_565" d="M666.247 739.6l2.589-3.883-.647-.431-2.589 3.883z" class="cls-2" transform="translate(-400.726 -169.041)"/>
        <path id="패스_566" d="M1234.9 737.065l-1.186-1.78-.647.431 1.187 1.78z" class="cls-2" transform="translate(-955.899 -169.041)"/>
        <path id="패스_567" d="M1299.614 834.132l-1.186-1.78-.647.431 1.187 1.78z" class="cls-2" transform="translate(-1019.207 -264.005)"/>
        <path id="패스_568" d="M1279.053 707.631zm2.049 1.672l-1.079-1.618-.431-.647-1.079-1.618-.647.431 1.187 1.78.216.324 1.187 1.78z" class="cls-2" transform="translate(-999.725 -139.823)"/>
        <path id="패스_569" d="M1389.214 774.4l-1.187-1.78-.647.431 1.187 1.78z" class="cls-2" transform="translate(-1106.866 -205.566)"/>
        <path id="패스_570" d="M1324.5 677.333l-1.186-1.78-.647.431 1.186 1.78z" class="cls-2" transform="translate(-1043.558 -110.603)"/>
        <path id="패스_571" d="M668.836 1117.483l-2.589-3.883-.647.431 2.589 3.883z" class="cls-2" transform="translate(-400.726 -539.159)"/>
        <path id="패스_572" d="M622.635 1145.25l-1.187-1.78-.647.431 1.186 1.78z" class="cls-2" transform="translate(-356.897 -568.381)"/>
        <path id="패스_573" d="M687.344 1242.32l-1.186-1.78-.647.431 1.186 1.78z" class="cls-2" transform="translate(-420.204 -663.348)"/>
        <path id="패스_574" d="M578.048 1175.443l-.216-.323-1.186-1.78-.647.431 2.589 3.883.647-.431z" class="cls-2" transform="translate(-313.066 -597.604)"/>
        <path id="패스_575" d="M1233.717 1212.881l1.186-1.78-.647-.431-1.187 1.78z" class="cls-2" transform="translate(-955.899 -634.125)"/>
        <path id="패스_576" d="M1278.517 1242.751l1.187-1.78-.647-.431-1.187 1.78z" class="cls-2" transform="translate(-999.729 -663.348)"/>
        <path id="패스_577" d="M1323.317 1272.611l1.186-1.78-.647-.432-1.186 1.78z" class="cls-2" transform="translate(-1043.558 -692.561)"/>
        <path id="패스_578" d="M1388.027 1175.551l1.187-1.78-.647-.431-1.187 1.78z" class="cls-2" transform="translate(-1106.866 -597.604)"/>
        <path id="패스_579" d="M1343.227 1145.681l1.186-1.78-.647-.431-1.186 1.78z" class="cls-2" transform="translate(-1063.036 -568.381)"/>
        <path id="패스_580" d="M1298.427 1115.811l1.186-1.78-.647-.431-1.187 1.78z" class="cls-2" transform="translate(-1019.207 -539.159)"/>
        <path id="패스_581" fill="#003478" fill-rule="evenodd" d="M826.293 948.8c-.245-1-.121-.494 0 0zm0 0a4.475 4.475 0 1 1-8.822 1.061v-.054a3.089 3.089 0 0 0 2.469 1.477c2.438 0 2.438-2.879 4.875-2.879a2.4 2.4 0 0 1 1.5.487q-.015-.042-.021-.092zm-8.822 1.005c.002-.09.003-.163.001.005z" transform="translate(-549.306 -377.366)"/>
        <path id="패스_582" fill="#c60c30" fill-rule="evenodd" d="M821.975 817.5a4.476 4.476 0 0 1 4.369 3.5 2.4 2.4 0 0 0-1.5-.487c-2.438 0-2.438 2.879-4.875 2.879a3.089 3.089 0 0 1-2.469-1.477 4.474 4.474 0 0 1 4.475-4.415z" transform="translate(-549.335 -249.474)"/>
    </g>
</svg>
