<svg xmlns="http://www.w3.org/2000/svg" id="ic_certick" width="242" height="57.739" viewBox="0 0 242 57.739">
    <defs>
        <style>
            .cls-1{fill:#fff;fill-rule:evenodd}
        </style>
    </defs>
    <path id="패스_24" d="M50.638 38.746l.3 1.837a34.487 34.487 0 0 1 .332 5.159A47.6 47.6 0 0 1 49.9 57.06a42.412 42.412 0 0 1-6.316 14.058 43.814 43.814 0 0 1-15.5 13.575l-.878.473-.878-.473a43.831 43.831 0 0 1-15.5-13.575A42.416 42.416 0 0 1 4.511 57.06 47.6 47.6 0 0 1 3.14 45.745a34.478 34.478 0 0 1 .332-5.159l.3-1.837a1.153 1.153 0 0 0-2.272-.377l-.3 1.837a36.562 36.562 0 0 0-.364 5.536A49.9 49.9 0 0 0 2.27 57.617a44.718 44.718 0 0 0 6.666 14.822 46.086 46.086 0 0 0 16.308 14.288l1.425.767a1.15 1.15 0 0 0 1.093 0l1.423-.767a46.229 46.229 0 0 0 16.309-14.288 44.716 44.716 0 0 0 6.662-14.82 49.894 49.894 0 0 0 1.438-11.872 36.579 36.579 0 0 0-.364-5.536l-.3-1.837a1.153 1.153 0 0 0-2.275.376h-.012z" class="cls-1" transform="translate(-0.831 -29.892)"/>
    <path id="패스_25" d="M40.816 7.682L57.95 2.448l17.515 5.347a1.157 1.157 0 1 0 .672-2.215L58.286.13a1.148 1.148 0 0 0-.672 0L40.142 5.463a1.157 1.157 0 1 0 .672 2.215z" class="cls-1" transform="translate(-31.571 -0.08)"/>
    <path id="패스_26" d="M4.226 39.034L28.788 86.95a1.152 1.152 0 0 0 2.041.018l14.979-28 .022-.044L55.418 39a1.154 1.154 0 0 0-2.077-1l-9.572 19.9-13.92 26.04L6.277 37.98a1.152 1.152 0 0 0-2.052 1.05z" class="cls-1" transform="translate(-3.441 -29.842)"/>
    <path id="패스_27" d="M58.558 102.784h27.314a1.153 1.153 0 1 0 0-2.305H58.558a1.153 1.153 0 0 0 0 2.305m76.188-9.946h-17.77a1.166 1.166 0 0 0-1.16 1.16v14.262a1.168 1.168 0 0 0 1.16 1.16h17.77v2.416h-17.77a3.55 3.55 0 0 1-3.566-3.566V94.008a3.549 3.549 0 0 1 3.566-3.566h17.77zm33.367-2.408v2.416H151v7.061h13.755v2.436H151v7.073h17.11v2.416h-19.529V90.43z" class="cls-1" transform="translate(-46.015 -72.253)"/>
    <path id="패스_28" fill="#fff" d="M697.372 94.145v6.269a3.552 3.552 0 0 1-3.566 3.566h-3.268l6.714 7.963h-3.179l-6.686-7.963h-7.852a11.392 11.392 0 0 1-1.16-.119v8.081h-2.415V90.58h17.828a3.551 3.551 0 0 1 3.566 3.566zm-17.828 7.4h14.262a1.115 1.115 0 0 0 1.13-1.129v-6.271a1.143 1.143 0 0 0-.326-.817 1.071 1.071 0 0 0-.805-.342h-14.263a1.166 1.166 0 0 0-1.16 1.16v6.269a1.067 1.067 0 0 0 .342.805 1.138 1.138 0 0 0 .82.324z" transform="translate(-540.102 -72.372)"/>
    <path id="패스_29" d="M845.78 90.43h21.385v2.416H857.7v18.988h-2.416V92.846h-9.504zm34.347 21.393V90.43h2.416v21.393zm34.526-21.393h3.09l-8.943 10.7 8.973 10.7h-3.121l-7.963-9.479H899.8v9.479h-2.432v-21.4h2.432v9.477h6.894z" class="cls-1" transform="translate(-675.774 -72.253)"/>
</svg>
