<svg xmlns="http://www.w3.org/2000/svg" width="242" height="59.968" viewBox="0 0 242 59.968">
    <defs>
        <style>
            .cls-1{fill:#232423}.cls-3{fill:#6f7071}.cls-5{fill:#fff}
        </style>
    </defs>
    <g id="ic_etheteum" transform="translate(44.164 -103.979)">
        <g id="그룹_66" transform="translate(-44.164 103.979)">
            <path id="패스_211" d="M464.038 321.12v15.014l18.431-25.888z" class="cls-1" transform="translate(-445.608 -276.167)"/>
            <path id="패스_212" fill="#030504" d="M464.038 219.982v19.272l18.43-10.9z" transform="translate(-445.608 -197.775)"/>
            <path id="패스_213" d="M464.038 51.13v22.208l18.43 8.37z" class="cls-1" transform="translate(-445.608 -51.13)"/>
            <path id="패스_214" d="M342.339 321.12v15.014l-18.431-25.888z" class="cls-3" transform="translate(-323.908 -276.167)"/>
            <path id="패스_215" fill="#272828" d="M342.341 219.982v19.272l-18.43-10.9z" transform="translate(-323.911 -197.775)"/>
            <path id="패스_216" d="M342.341 51.13v22.208l-18.43 8.37z" class="cls-3" transform="translate(-323.911 -51.13)"/>
        </g>
        <g id="그룹_67" transform="translate(6.754 116.676)">
            <path id="패스_217" d="M17.5 616.687c.195 3.172 2.792 7.13 7.185 7.137a7.008 7.008 0 0 0 6.09-3.169.825.825 0 0 1 1.055-.173.749.749 0 0 1 .244 1.065 8.453 8.453 0 0 1-7.506 3.774 8.648 8.648 0 0 1-6.415-3.118 9.316 9.316 0 0 1-2.16-6.255 8.8 8.8 0 0 1 2.4-6.431 8.332 8.332 0 0 1 6.172-2.824 7.931 7.931 0 0 1 6.11 2.635 9.427 9.427 0 0 1 2.577 6.578.755.755 0 0 1-.754.781zm7.07-8.539a6.957 6.957 0 0 0-4.678 1.985 8.389 8.389 0 0 0-2.324 5.136h13.99a8.18 8.18 0 0 0-2.172-4.949 5.76 5.76 0 0 0-4.82-2.172z" class="cls-5" transform="translate(-15.991 -592.111)"/>
            <path id="패스_218" d="M342.267 616.687c.195 3.172 2.792 7.13 7.185 7.137a7.008 7.008 0 0 0 6.09-3.169.825.825 0 0 1 1.055-.173.749.749 0 0 1 .244 1.065 8.453 8.453 0 0 1-7.506 3.774 8.648 8.648 0 0 1-6.415-3.118 9.316 9.316 0 0 1-2.16-6.255 8.8 8.8 0 0 1 2.4-6.431 8.332 8.332 0 0 1 6.172-2.824 7.931 7.931 0 0 1 6.11 2.635 9.427 9.427 0 0 1 2.577 6.578.755.755 0 0 1-.754.781zm7.07-8.539a6.957 6.957 0 0 0-4.678 1.985 8.389 8.389 0 0 0-2.324 5.136h13.99a8.18 8.18 0 0 0-2.172-4.949 5.76 5.76 0 0 0-4.816-2.172z" class="cls-5" transform="translate(-271.508 -592.111)"/>
            <path id="패스_219" d="M543.255 616.687c.195 3.172 2.792 7.13 7.185 7.137a7.007 7.007 0 0 0 6.09-3.169.825.825 0 0 1 1.055-.173.749.749 0 0 1 .244 1.065 8.453 8.453 0 0 1-7.505 3.774 8.649 8.649 0 0 1-6.416-3.118 9.316 9.316 0 0 1-2.16-6.255 8.8 8.8 0 0 1 2.4-6.431 8.333 8.333 0 0 1 6.172-2.824 7.931 7.931 0 0 1 6.11 2.635 9.428 9.428 0 0 1 2.577 6.578.755.755 0 0 1-.755.78zm7.07-8.539a6.958 6.958 0 0 0-4.678 1.985 8.39 8.39 0 0 0-2.324 5.136h13.99a8.181 8.181 0 0 0-2.172-4.949 5.759 5.759 0 0 0-4.815-2.172z" class="cls-5" transform="translate(-429.638 -592.111)"/>
            <path id="패스_220" d="M140.35 585.651v15.913a.7.7 0 0 1-.7.7.7.7 0 0 1-.7-.7v-15.913h-4a.677.677 0 0 1 0-1.354h4V578.4a.709.709 0 0 1 .707-.706h.015a.679.679 0 0 1 .677.677v5.929h4.125a.677.677 0 0 1 0 1.354z" class="cls-5" transform="translate(-109.053 -569.297)"/>
            <path id="패스_221" d="M236.617 553.1a6.866 6.866 0 0 0-7.224 3.537v-17.655a.679.679 0 0 0-.677-.677h-.016a.709.709 0 0 0-.707.707v31.559a.7.7 0 0 0 .7.7.7.7 0 0 0 .7-.7V559.9c0-2.989 3.786-6.2 7.22-5.437a6.038 6.038 0 0 1 4.416 6.2v9.9a.7.7 0 0 0 .7.7.7.7 0 0 0 .7-.7V560.7c.199-3.01-1.878-7.054-5.812-7.6z" class="cls-5" transform="translate(-182.787 -538.305)"/>
            <path id="패스_222" d="M673.367 627.293a6.865 6.865 0 0 0 7.223-3.537v2.544a.679.679 0 0 0 .677.677h.015a.709.709 0 0 0 .707-.707v-16.44a.7.7 0 0 0-.7-.7.7.7 0 0 0-.7.7l.084 8.711c0 4.522-3.526 8.142-7.22 7.357a6.028 6.028 0 0 1-4.5-6.166v-9.9a.7.7 0 0 0-.7-.7.7.7 0 0 0-.7.7v9.868c.004 3.691 1.88 7.051 5.814 7.593z" class="cls-5" transform="translate(-528.618 -594.025)"/>
            <path id="패스_223" d="M804.724 607.386a6.95 6.95 0 0 0-7.6 4.658 6.989 6.989 0 0 0-5.447-4.658 6.839 6.839 0 0 0-7.248 3.459v-2.539a.679.679 0 0 0-.677-.677h-.015a.709.709 0 0 0-.707.707v16.439a.7.7 0 0 0 .7.7.7.7 0 0 0 .7-.7l-.085-8.711c0-4.522 3.552-8.063 7.245-7.278a5.977 5.977 0 0 1 4.49 5.772v10.218a.545.545 0 0 0 .01.074v.005a.8.8 0 0 0 .81.7.7.7 0 0 0 .7-.7v-2.385c.006-1.565.012-3.63.012-5.22 0-4.885 2.2-9.21 7.027-8.464 2.242.347 4.509 2.653 4.5 6.166v9.9a.7.7 0 0 0 .7.7.7.7 0 0 0 .7-.7v-9.871c.196-3.009-1.88-7.052-5.815-7.595z" class="cls-5" transform="translate(-619.466 -592.588)"/>
            <path id="패스_224" d="M476.142 609.375a.7.7 0 0 0-.259-.545.86.86 0 0 0-.586-.142 7.7 7.7 0 0 0-6.3 4.217v-3.646a.679.679 0 0 0-.677-.677h-.02a.709.709 0 0 0-.707.707v16.44a.7.7 0 0 0 .7.7.7.7 0 0 0 .7-.7l.045-8.229c0-3.946 3.043-7.295 6.561-7.462a.63.63 0 0 0 .54-.656z" class="cls-5" transform="translate(-371.298 -593.596)"/>
        </g>
    </g>
</svg>
