<svg xmlns="http://www.w3.org/2000/svg" width="242" height="29.141" viewBox="0 0 242 29.141">
    <defs>
        <clipPath id="clip-path">
            <path id="사각형_65" d="M0 0H242V29.141H0z" class="cls-1" transform="translate(-0.438 -0.012)"/>
        </clipPath>
        <style>
            .cls-1{fill:#fff}.cls-3{fill:#01943f}
        </style>
    </defs>
    <g id="ic_huobi" clip-path="url(#clip-path)" transform="translate(0.438 0.012)">
        <path id="패스_7" d="M34.274 6.7v8.174h-8.281V7.752a1.065 1.065 0 0 0-1.08-1.052h-2.8v19.479A1.065 1.065 0 0 0 23.2 27.23H26v-9.06h8.281v8.006a1.065 1.065 0 0 0 1.08 1.051h2.8V7.752A1.065 1.065 0 0 0 37.07 6.7z" class="cls-1" transform="translate(2.218 0.64)"/>
        <path id="패스_8" d="M48.9 11.121v9.727a2.481 2.481 0 0 1-1.25 2.165 2.894 2.894 0 0 1-4.465-2.34v-8.5a1.066 1.066 0 0 0-1.08-1.051H39.3v9.9a5.889 5.889 0 0 0 5.949 5.791h1.59a5.889 5.889 0 0 0 5.949-5.791v-8.85a1.066 1.066 0 0 0-1.08-1.051z" class="cls-1" transform="translate(3.85 1.06)"/>
        <path id="패스_9" d="M87.32 26.734h2.8V12.959a1.065 1.065 0 0 0-1.08-1.051h-2.8v13.775a1.065 1.065 0 0 0 1.08 1.051z" class="cls-3" transform="translate(8.31 1.134)"/>
        <path id="패스_10" d="M88.2 10.91a2.105 2.105 0 1 0-2.162-2.1 2.134 2.134 0 0 0 2.162 2.1z" class="cls-3" transform="translate(8.29 0.64)"/>
        <path id="패스_11" d="M61.516 11.112c-4.065 0-7.391 2.829-7.391 6.787v2.141c0 3.957 3.326 6.77 7.391 6.77s7.391-2.813 7.391-6.77V17.9c.001-3.959-3.325-6.788-7.391-6.788zm3.5 9.184a3.519 3.519 0 0 1-6.992 0v-2.671a3.519 3.519 0 0 1 6.992 0z" class="cls-1" transform="translate(5.259 1.059)"/>
        <path id="패스_12" d="M77.581 11.532a8.134 8.134 0 0 0-3.516.778V7.736a1.065 1.065 0 0 0-1.08-1.051h-2.8V20.46c0 3.957 3.326 6.77 7.391 6.77s7.391-2.813 7.391-6.77v-2.141c.005-3.957-3.321-6.787-7.386-6.787zm3.5 9.184a3.519 3.519 0 0 1-6.992 0v-2.67a3.519 3.519 0 0 1 6.992 0z" class="cls-3" transform="translate(6.785 0.638)"/>
        <path id="패스_13" d="M12.525 8.762c0-4.087-2.046-7.6-3.6-8.748-.007 0-.118-.065-.108.1-.128 7.893-4.27 10.032-6.548 12.914-5.256 6.65-.367 13.941 4.61 15.287 2.786.754-.643-1.334-1.085-5.745-.54-5.326 6.731-9.394 6.731-13.808z" class="cls-1" transform="translate(0.117 0.003)"/>
        <path id="패스_14" d="M14.087 10.458c-.032-.022-.076-.036-.109.014a14.814 14.814 0 0 1-2.451 5.071c-4.482 6.619-1.928 9.811-.491 11.524.833 1 0 0 2.083-1.017a9.153 9.153 0 0 0 4.49-7.065 10.114 10.114 0 0 0-3.522-8.527z" class="cls-3" transform="translate(0.972 0.995)"/>
        <path id="패스_15" d="M110.829 23.586H100.76v-5.22h7.789c.084 0 .587.01 1.2.029h.16v-2.287a1.252 1.252 0 0 0-.377-.9 1.175 1.175 0 0 0-.91-.362h-7.862v-4.481h11.051V7.989a1.262 1.262 0 0 0-1.257-1.265H97.013v.156s-.007 14.817-.02 19.079a1.263 1.263 0 0 0 .365.9 1.245 1.245 0 0 0 .892.372h13.836v-2.38a1.262 1.262 0 0 0-1.257-1.265z" class="cls-1" transform="translate(9.331 0.642)"/>
        <path id="패스_16" d="M129.685 12.087c-1.3-1.656-3.916-2.186-5.708-2.186a6.229 6.229 0 0 0-6.466 6.53c0 4.757 2.7 7.152 6.617 7.152a8.314 8.314 0 0 0 5.495-1.951h.153v2.8c0 1.186-2.31 2.669-6.193 2.669a9.95 9.95 0 0 1-10.261-10.077c0-6.235 4.28-10.639 10.626-10.639 3.4 0 5.89 1.178 5.89 2.1v3.6h-.152z" class="cls-1" transform="translate(10.883 0.609)"/>
        <path id="패스_17" d="M140.22 6.726c-5.3 0-9.294 3.761-9.294 8.75v2.993c0 4.975 4 8.726 9.294 8.726s9.294-3.751 9.294-8.726v-2.993c.001-4.989-3.995-8.75-9.294-8.75zm5.48 12.1c0 2.906-2.356 4.709-5.483 4.709s-5.484-1.8-5.484-4.709v-3.731c0-2.906 2.358-4.747 5.484-4.747s5.483 1.841 5.483 4.747z" class="cls-1" transform="translate(12.555 0.642)"/>
        <path id="패스_18" d="M197.8 12.237a8.166 8.166 0 0 0-5.074-1.368 19.7 19.7 0 0 0-2.554.173c-.7.091-1.7.223-2.391.377-.281.062-.331.276-.331.533V14c0 .365.005.7.4.6.739-.175 2.175-.485 2.565-.547a12.732 12.732 0 0 1 1.994-.149 4.5 4.5 0 0 1 2.5.569 2.282 2.282 0 0 1 .786 2.011v.116c-.195-.017-.412-.034-.646-.05-.439-.029-1-.043-1.688-.043a11.609 11.609 0 0 0-2.7.307 7.5 7.5 0 0 0-2.313.955 5.037 5.037 0 0 0-1.623 1.639 4.364 4.364 0 0 0-.6 2.292 4.685 4.685 0 0 0 .516 2.266 4.286 4.286 0 0 0 1.472 1.567 6.551 6.551 0 0 0 2.268.876 14.745 14.745 0 0 0 2.888.262c.769 0 6.318-.077 6.318-2.647v-7.43a5.208 5.208 0 0 0-1.787-4.357zm-2.108 7.3v3.953a9.942 9.942 0 0 1-1 .134 14.017 14.017 0 0 1-2.618.014 2.844 2.844 0 0 1-1-.266 1.9 1.9 0 0 1-.719-.607 1.873 1.873 0 0 1-.281-1.118 1.808 1.808 0 0 1 .851-1.663 5.247 5.247 0 0 1 2.746-.578c.327 0 .725.019 1.2.055.313.023.586.047.829.071z" class="cls-1" transform="translate(17.799 1.036)"/>
        <path id="패스_19" d="M214.605 10.952c-1.531 0-3.23.358-3.511 1.123v-.362a1.007 1.007 0 0 0-1.021-.993h-3.09v14.975a1.007 1.007 0 0 0 1.022.994h3.059v-8.551c0-2.774 1.649-3.71 2.912-3.71 1.77 0 3.209 1.022 3.209 3.593v7.672a1.007 1.007 0 0 0 1.021.994h3.03v-8.842c.001-4.469-2.46-6.893-6.631-6.893z" class="cls-1" transform="translate(19.781 1.021)"/>
        <path id="패스_20" d="M202.024 26.421h2.8V12.645a1.066 1.066 0 0 0-1.08-1.051h-2.8v13.775a1.066 1.066 0 0 0 1.08 1.052z" class="cls-1" transform="translate(19.207 1.105)"/>
        <path id="패스_21" d="M202.9 10.594a2.105 2.105 0 1 0-2.163-2.1 2.134 2.134 0 0 0 2.163 2.1z" class="cls-1" transform="translate(19.187 0.61)"/>
        <path id="패스_22" d="M169.457 12.087c-1.3-1.656-3.915-2.186-5.707-2.186a6.229 6.229 0 0 0-6.467 6.53c0 4.757 2.7 7.152 6.617 7.152a8.317 8.317 0 0 0 5.5-1.951h.152v2.8c0 1.186-2.309 2.669-6.192 2.669a9.95 9.95 0 0 1-10.261-10.077c0-6.235 4.279-10.639 10.626-10.639 3.4 0 5.89 1.178 5.89 2.1v3.6h-.153z" class="cls-1" transform="translate(14.661 0.609)"/>
        <path id="패스_23" d="M178.248 11.631c-1.517 0-3.2.353-3.477 1.114v-5.3a1 1 0 0 0-1.011-.984h-3.06v19.648a1 1 0 0 0 1.011.984h3.03v-8.347c0-2.748 1.635-3.674 2.882-3.674 1.753 0 3.181 1.013 3.181 3.559v7.476a1 1 0 0 0 1.011.984h3v-8.633c.001-4.425-2.438-6.827-6.567-6.827z" class="cls-1" transform="translate(16.334 0.617)"/>
    </g>
</svg>
