<svg xmlns="http://www.w3.org/2000/svg" width="242" height="38.854" viewBox="0 0 242 38.854">
    <defs>
        <style>
            .cls-1{fill:#ffcd00}.cls-2{fill:#fff}
        </style>
    </defs>
    <g id="ic_kakao" transform="translate(-173.783 -198.469)">
        <g id="kakao_CI_BI" transform="translate(173.783 199.558)">
            <path id="패스_190" d="M177.15 230.054h-3.367V201.76l3.367-.733zm9.006-20.534l2.636 1.9-6.48 8.126 7.5 9-2.6 2.013-8.858-10.835z" class="cls-1" transform="translate(-173.783 -201.027)"/>
            <path id="패스_191" d="M218.425 236.317a5.524 5.524 0 0 1 2.033-4.63 9.422 9.422 0 0 1 5.91-1.593h3.882v-1.281q0-4.649-4.1-4.648a11.253 11.253 0 0 0-2.762.366 15.772 15.772 0 0 0-2.654.915l-.989-2.38a13.774 13.774 0 0 1 3.241-1.3 13.328 13.328 0 0 1 3.384-.457q7.1 0 7.1 7.577V241.7h-2.488l-.4-2.2a12.036 12.036 0 0 1-3.2 1.867 8.965 8.965 0 0 1-3.241.659 5.261 5.261 0 0 1-5.71-5.71zm6.32 3a6.01 6.01 0 0 0 1.44-.184 11.634 11.634 0 0 0 1.494-.475 8 8 0 0 0 1.4-.714 8.223 8.223 0 0 0 1.168-.9v-4.685h-3.5a6.532 6.532 0 0 0-3.882.915 3.38 3.38 0 0 0-1.22 2.892q.002 3.153 3.1 3.153z" class="cls-1" transform="translate(-199.41 -212.67)"/>
            <path id="패스_192" d="M271.183 230.054h-3.367V201.76l3.367-.733zm9-20.534l2.636 1.9-6.477 8.126 7.5 9-2.6 2.013-8.858-10.835z" class="cls-1" transform="translate(-227.764 -201.027)"/>
            <path id="패스_193" d="M312.458 236.317a5.529 5.529 0 0 1 2.03-4.63 9.429 9.429 0 0 1 5.912-1.593h3.879v-1.281q0-4.649-4.1-4.648a11.266 11.266 0 0 0-2.764.366 15.667 15.667 0 0 0-2.652.915l-.989-2.38a13.8 13.8 0 0 1 3.238-1.3 13.333 13.333 0 0 1 3.387-.457q7.1 0 7.1 7.577V241.7h-2.49l-.4-2.2a12 12 0 0 1-3.2 1.867 8.966 8.966 0 0 1-3.239.659 5.258 5.258 0 0 1-5.71-5.71zm6.32 3a6.026 6.026 0 0 0 1.44-.184 11.635 11.635 0 0 0 1.494-.475 8.077 8.077 0 0 0 1.4-.714 8.341 8.341 0 0 0 1.165-.9v-4.685h-3.5a6.523 6.523 0 0 0-3.882.915 3.374 3.374 0 0 0-1.22 2.892q.005 3.153 3.103 3.153z" class="cls-1" transform="translate(-253.391 -212.67)"/>
            <path id="패스_194" d="M367.547 221.4a8.266 8.266 0 0 1 6.553 2.7q2.381 2.71 2.381 7.761 0 4.978-2.362 7.651a9.391 9.391 0 0 1-13.121 0q-2.381-2.672-2.381-7.651 0-5.051 2.4-7.761a8.284 8.284 0 0 1 6.53-2.7zm0 2.708a4.664 4.664 0 0 0-4.044 1.977 9.9 9.9 0 0 0-1.411 5.784 9.559 9.559 0 0 0 1.411 5.692 5.256 5.256 0 0 0 8.126 0 9.575 9.575 0 0 0 1.409-5.692 9.92 9.92 0 0 0-1.409-5.784 4.706 4.706 0 0 0-4.082-1.985z" class="cls-1" transform="translate(-279.889 -212.72)"/>
        </g>
        <path id="패스_195" d="M415.873 221.389v20.791H421v-15.5a.643.643 0 0 1 .437-.611c1.272-.428 4.967-1.382 6.245 1.417v14.7h4.818V226.6a.527.527 0 0 1 .357-.5c1.27-.432 5.533-1.635 6.324 1.387v14.7h4.972v-15.961s-.932-4.857-5.283-4.837-5.288.187-7.355 2.424c0 0 .052-2.29-5.076-2.425s-6.587 2.852-6.587 2.852l-.094-2.851z" class="cls-2" transform="translate(-138.975 -13.155)"/>
        <g id="그룹_62" transform="translate(308.629 199.267)">
            <path id="패스_196" d="M499.542 221.309c-3.571 0-9.171 2.988-9.171 10.359 0 7.1 5.077 10.7 9.171 10.7 3.812 0 9.809-2.683 9.809-10.532.001-7.29-5.415-10.527-9.809-10.527zm.138 17.272c-2.62 0-4-2.193-4-6.74 0-4.717 1.711-6.74 4-6.74 2.812 0 4.486 2.34 4.486 7.008 0 5.023-2.046 6.472-4.486 6.472z" class="cls-2" transform="translate(-490.371 -212.379)"/>
            <path id="패스_197" d="M553.425 209.273a9.767 9.767 0 0 0-4.845.811l.053-9.741-5.345 1.233v27.608a21.513 21.513 0 0 0 8.735 1.153c5.285-.29 8.951-3.2 9.059-9.888s-1.726-11.176-7.657-11.176zm-2.6 17.645h-2.21v-13.411s7.772-2.133 7.772 5.6-5.562 7.811-5.562 7.811z" class="cls-2" transform="translate(-520.749 -200.343)"/>
        </g>
        <path id="사각형_169" d="M0 0H5.105V20.192H0z" class="cls-2" transform="translate(352.726 208.698)"/>
        <path id="패스_198" d="M595.1 205.5l3.524-3.524-3.505-3.505-3.576 3.576z" class="cls-2" transform="translate(-239.819 0)"/>
        <path id="사각형_170" d="M0 0H5.105V20.192H0z" class="cls-2" transform="translate(372.004 208.698)"/>
        <path id="패스_199" d="M616.529 201.392l5.105-1.049v29.623h-5.105z" class="cls-2" transform="translate(-254.164 -1.076)"/>
        <path id="패스_200" d="M640.357 205.5l3.524-3.524-3.505-3.505-3.577 3.576z" class="cls-2" transform="translate(-265.801 0)"/>
        <path id="패스_201" d="M665.658 210.141c-.3 0-5.334 1.372-5.334 1.372v3.887l-3.276.3v3.166h3.274v11.813a5.43 5.43 0 0 0 5.867 5.475c5.944 0 6.179-2.229 6.179-2.229l-1.291-2.972a5.3 5.3 0 0 1-3.168 1.1c-1.877 0-2.229-2.268-2.229-2.268v-10.764h6.061V215.4h-6.1z" class="cls-2" transform="translate(-277.425 -6.701)"/>
        <path id="패스_202" d="M696.466 222.181l4.961-1.608 4.479 15.524 4.755-15.524 5.175 1.468-7.2 20.1s-2.588 5.216-6.294 7.874l-3.147-2.867 4.126-4.546s.769-.559 0-2.587-6.855-17.834-6.855-17.834z" class="cls-2" transform="translate(-300.053 -12.689)"/>
    </g>
</svg>
