<svg xmlns="http://www.w3.org/2000/svg" width="242" height="29.817" viewBox="0 0 242 29.817">
    <defs>
        <style>
            .cls-1{fill:#c88856}
        </style>
    </defs>
    <g id="ic_keyeast" transform="translate(-173.042 -1033.713)">
        <path id="패스_203" d="M200.263 1063.088l-11.337-18.305 9.714-9.8a.5.5 0 0 0-.353-.846h-5.469l-11.7 11.8v-11.2a.6.6 0 0 0-.6-.6h-6.878a.6.6 0 0 0-.6.6v28.4a.6.6 0 0 0 .6.6h7.484v-11.072l3.218-3.247 8.331 14.344h7.22a.435.435 0 0 0 .37-.674z" class="cls-1" transform="translate(0 -0.221)"/>
        <path id="패스_204" d="M491.308 1034.134h-13.575l-7.585 4.005a.931.931 0 0 0-.5.823v24.185a.58.58 0 0 0 .58.58h6.922a.58.58 0 0 0 .58-.58v-13.909l10.23.03 3.345-1.792v15.671a.58.58 0 0 0 .58.58h5.725a.58.58 0 0 0 .58-.58v-28.433a.58.58 0 0 0-.58-.58zm0 12.824h-13.575v-10.182a.36.36 0 0 1 .361-.36l12.854.038a.36.36 0 0 1 .359.36z" class="cls-1" transform="translate(-155.981 -0.221)"/>
        <path id="패스_205" d="M272.824 1058.219h-17.411v-10.232l15.709.046a.909.909 0 0 0 .912-.91v-.507a.91.91 0 0 0-.91-.91h-15.711v-9.713l16.249.048a.371.371 0 0 0 .372-.371v-1.586a.371.371 0 0 0-.371-.371h-16.25l-7.715 3.812a.658.658 0 0 0-.367.59v20.371a.486.486 0 0 0 .24.42l7.842 4.6 11.215-.017a.571.571 0 0 0 .349-.118l6.025-4.627a.292.292 0 0 0-.178-.525z" class="cls-1" transform="translate(-39.067 0)"/>
        <path id="패스_206" d="M421.246 1058.219h-17.41v-10.232l15.709.046a.91.91 0 0 0 .913-.91v-.507a.91.91 0 0 0-.909-.91h-15.713v-9.713l16.249.048a.372.372 0 0 0 .373-.371v-1.586a.371.371 0 0 0-.371-.371h-16.25l-7.715 3.812a.658.658 0 0 0-.366.59v20.371a.486.486 0 0 0 .24.42l7.841 4.6 11.216-.017a.57.57 0 0 0 .348-.118l6.025-4.627a.292.292 0 0 0-.18-.525z" class="cls-1" transform="translate(-117.12 0)"/>
        <g id="그룹_64" transform="translate(240.404 1033.713)">
            <path id="패스_207" d="M320.568 1033.713h-4.926a.522.522 0 0 0-.4.855l9.96 11.71a.522.522 0 0 0 .785.022l2.691-3.187a.522.522 0 0 0 0-.705l-7.725-8.524a.522.522 0 0 0-.385-.171z" class="cls-1" transform="translate(-315.119 -1033.713)"/>
            <path id="패스_208" d="M358.032 1033.713h-6.791a.523.523 0 0 0-.4.186l-11.763 13.972a.522.522 0 0 0-.123.336v14.738a.522.522 0 0 0 .522.521h7.043a.522.522 0 0 0 .522-.521v-14.928H347l11.43-13.443a.522.522 0 0 0-.398-.861z" class="cls-1" transform="translate(-327.654 -1033.713)"/>
        </g>
        <path id="패스_209" d="M651.986 1033.713h-27.74a.22.22 0 0 0-.22.22v2.042a.22.22 0 0 0 .22.219h14.53a.22.22 0 0 1 .086.422l-4.689 2a.221.221 0 0 0-.134.2l-.179 24.448a.22.22 0 0 0 .22.221h7.637a.22.22 0 0 0 .22-.22v-26.854a.22.22 0 0 1 .219-.22h9.829a.219.219 0 0 0 .22-.219v-2.042a.22.22 0 0 0-.219-.217z" class="cls-1" transform="translate(-237.164 0)"/>
        <path id="패스_210" d="M560.617 1044.089v-7.468a.427.427 0 0 1 .427-.427H579.1a.427.427 0 0 0 .427-.427v-1.627a.427.427 0 0 0-.427-.427h-18.377a.426.426 0 0 0-.2.05l-7.088 3.746a.428.428 0 0 0-.228.377v7.4a.426.426 0 0 0 .346.419l18.2 3.509a.426.426 0 0 1 .346.419v8.428a.427.427 0 0 1-.427.427h-11.945a.428.428 0 0 0-.258.087l-5.466 4.15a.427.427 0 0 0 .258.767h18.186a.43.43 0 0 0 .239-.073l7.146-4.8a.426.426 0 0 0 .189-.354v-10.1a.427.427 0 0 0-.354-.421l-18.694-3.224a.427.427 0 0 1-.356-.431z" class="cls-1" transform="translate(-199.922 0)"/>
    </g>
</svg>
