<svg xmlns="http://www.w3.org/2000/svg" width="40" height="40.722" viewBox="0 0 40 40.722">
    <defs>
        <style>
            .cls-1{fill:#0eef6d}
        </style>
    </defs>
    <g id="ic_logo_defi_active" transform="translate(-2882.18 -1330.817)">
        <g id="그룹_2" transform="translate(2882.18 1336.109)">
            <g id="그룹_1">
                <path id="패스_1" d="M2902.18 1379.973a20.306 20.306 0 0 1-13.733-34.973 1.629 1.629 0 0 1 2.325.066 1.681 1.681 0 0 1-.065 2.356 16.71 16.71 0 1 0 22.948 0 1.683 1.683 0 0 1-.066-2.356 1.633 1.633 0 0 1 2.327-.066 20.307 20.307 0 0 1-13.735 34.975z" class="cls-1" transform="translate(-2882.18 -1344.543)"/>
            </g>
        </g>
        <g id="그룹_3" transform="translate(2906.742 1330.817)">
            <path id="패스_2" d="M2942.07 1346.948a1.518 1.518 0 0 1-1.518-1.518v-13.1a1.518 1.518 0 0 1 3.036 0v13.1a1.518 1.518 0 0 1-1.518 1.518z" class="cls-1" transform="translate(-2940.552 -1330.817)"/>
        </g>
        <g id="그룹_4" transform="translate(2894.613 1330.817)">
            <path id="패스_3" d="M2913.242 1346.948a1.518 1.518 0 0 1-1.518-1.518v-13.1a1.518 1.518 0 1 1 3.036 0v13.1a1.518 1.518 0 0 1-1.518 1.518z" class="cls-1" transform="translate(-2911.724 -1330.817)"/>
        </g>
    </g>
</svg>
