<svg xmlns="http://www.w3.org/2000/svg" width="242" height="86.64" viewBox="0 0 242 86.64">
    <defs>
        <style>
            .cls-1{fill:#cb0017}.cls-2{fill:#fff}
        </style>
    </defs>
    <g id="ic_panda" transform="translate(0)">
        <g id="그룹_7" transform="translate(0 0)">
            <path id="패스_30" d="M-293.174 237.924a23.3 23.3 0 0 0-23.3-23.2 23.306 23.306 0 0 0-23.306 23.306 23.306 23.306 0 0 0 23.306 23.306 23.186 23.186 0 0 0 12.571-3.686l10.743 3.684v-23.41zm-23.3 12.676a12.568 12.568 0 0 1-12.568-12.568 12.568 12.568 0 0 1 12.568-12.568 12.568 12.568 0 0 1 12.568 12.568 12.568 12.568 0 0 1-12.572 12.568z" class="cls-1" transform="translate(388.566 -205.978)"/>
            <path id="패스_31" d="M-3.526 237.924a23.3 23.3 0 0 0-23.3-23.2 23.306 23.306 0 0 0-23.306 23.306 23.306 23.306 0 0 0 23.302 23.308 23.189 23.189 0 0 0 12.572-3.686l10.743 3.684v-23.412zM-26.83 250.6a12.568 12.568 0 0 1-12.57-12.568 12.568 12.568 0 0 1 12.57-12.568 12.568 12.568 0 0 1 12.568 12.568A12.568 12.568 0 0 1-26.83 250.6z" class="cls-1" transform="translate(245.511 -205.978)"/>
            <path id="패스_32" d="M-195.509 237.924c0 .009 0 .018 0 0a23.3 23.3 0 0 0-23.3-23.2 23.3 23.3 0 0 0-23.3 23.2c0 .036 0-.036 0 0v19.732h10.743v-19.732-.014a12.567 12.567 0 0 1 12.565-12.446 12.476 12.476 0 0 1 12.568 12.46v19.728l10.743 3.684v-23.412z" class="cls-1" transform="translate(340.331 -205.978)"/>
            <path id="패스_33" d="M-412.855 214.726a23.3 23.3 0 0 0-23.3 23.2h-.011V270l10.743-3.684v-8.665a23.186 23.186 0 0 0 12.572 3.686 23.306 23.306 0 0 0 23.306-23.306 23.306 23.306 0 0 0-23.31-23.305zm0 35.874a12.568 12.568 0 0 1-12.568-12.568 12.568 12.568 0 0 1 12.568-12.568 12.568 12.568 0 0 1 12.568 12.568 12.568 12.568 0 0 1-12.568 12.568z" class="cls-1" transform="translate(436.17 -205.978)"/>
            <path id="패스_34" d="M-99.472 197.441l-10.743 3.683v8.665a23.188 23.188 0 0 0-12.572-3.686 23.306 23.306 0 0 0-23.306 23.306 23.306 23.306 0 0 0 23.306 23.306 23.3 23.3 0 0 0 23.3-23.2h.011zm-23.314 44.536a12.568 12.568 0 0 1-12.568-12.568 12.568 12.568 0 0 1 12.568-12.568 12.568 12.568 0 0 1 12.568 12.568 12.568 12.568 0 0 1-12.569 12.568z" class="cls-1" transform="translate(292.904 -197.441)"/>
        </g>
        <g id="그룹_10" transform="translate(0 72.755)">
            <g id="그룹_9">
                <circle id="타원_7" cx="1.961" cy="1.961" r="1.961" class="cls-2" transform="translate(181.94 4.982)"/>
                <path id="패스_35" d="M-429.291 351.178h-4.127v3.874h-2.751v-13.185h6.879c7.127 0 7.147 9.311-.001 9.311zm-4.127-2.276h4.127c3.523 0 3.5-4.665 0-4.665h-4.127z" class="cls-2" transform="translate(436.17 -341.526)"/>
                <path id="패스_36" d="M-357.838 341.829h2.751v13.186h-1.713v.019l-7.67-8.9v8.879h-2.751v-13.165h2.23l7.149 8.164z" class="cls-2" transform="translate(402.115 -341.508)"/>
                <path id="패스_37" d="M-317.681 348.375c.062 3.329-2.188 6.7-7.3 6.7h-5.732V341.9h5.732c5.007 0 7.237 3.22 7.3 6.475zm-10.3 4.307h3c3.314 0 4.627-2.182 4.565-4.327-.063-2.05-1.4-4.1-4.565-4.1h-3z" class="cls-2" transform="translate(384.083 -341.545)"/>
                <g id="그룹_8" transform="translate(89.686)">
                    <path id="패스_38" d="M-221.2 341.194a7.24 7.24 0 0 0-5.035 2.049 6.894 6.894 0 0 0-2.079 4.894 6.9 6.9 0 0 0 2.079 4.894 7.17 7.17 0 0 0 5.035 2.049 7.168 7.168 0 0 0 5.055-2.049 6.891 6.891 0 0 0 2.079-4.894 6.9 6.9 0 0 0-2.082-4.9 7.234 7.234 0 0 0-5.052-2.043zm0 11.393a4.608 4.608 0 0 1-3.214-1.321 4.326 4.326 0 0 1-1.343-3.13 4.329 4.329 0 0 1 1.346-3.136 4.6 4.6 0 0 1 3.212-1.319 4.718 4.718 0 0 1 3.251 1.319 4.382 4.382 0 0 1 1.326 3.132 4.379 4.379 0 0 1-1.323 3.13 4.722 4.722 0 0 1-3.255 1.325z" class="cls-2" transform="translate(243.826 -341.194)"/>
                    <path id="패스_39" d="M-247.251 341.979l-6.482 6.3 7.024 6.64v.15h-3.4l-6.107-5.831v5.831h-2.751V341.9h2.751v5.568l5.544-5.568h3.418z" class="cls-2" transform="translate(258.964 -341.545)"/>
                </g>
                <path id="패스_40" d="M-175.252 355.071h-3.272l-4.252-4.4h-2.647v4.4h-2.751V341.9h6.941c3.439.019 5.252 2.088 5.252 4.364a4.007 4.007 0 0 1-3.689 4.138l4.418 4.5zm-10.171-10.854v4.214h4.19c1.751 0 2.5-1.053 2.5-2.107s-.771-2.107-2.5-2.107z" class="cls-2" transform="translate(313.687 -341.545)"/>
                <path id="패스_41" d="M-141.649 355.071h-10.921V341.9h10.921v2.408h-8.191v3.029h8.191v2.314h-8.191v2.971h8.191z" class="cls-2" transform="translate(296.102 -341.545)"/>
                <path id="패스_42" d="M-395.288 355.071h2.991l-6.545-13.167h-3l-6.544 13.167h2.98l.419-.831 1.144-2.329h7.019zm-5.055-10.4l2.383 4.928h-4.765z" class="cls-2" transform="translate(422.449 -341.545)"/>
                <path id="패스_43" d="M-286.994 355.071H-284l-6.545-13.167h-3l-6.544 13.167h2.98l.419-.831 1.143-2.329h7.019zm-5.055-10.4l2.382 4.928h-4.765z" class="cls-2" transform="translate(368.963 -341.545)"/>
                <path id="패스_44" d="M-108.726 355.071h2.991l-6.545-13.171h-3l-6.545 13.167h2.98l.419-.831 1.144-2.329h7.019zm-5.055-10.4l2.383 4.928h-4.765z" class="cls-2" transform="translate(280.918 -341.545)"/>
                <path id="패스_45" d="M-42.281 342.916a5.607 5.607 0 0 1 4 1.637 5.5 5.5 0 0 1 1.141 1.636l.1.215h1.1l-.218-.508a6.621 6.621 0 0 0-1.4-2.054 6.624 6.624 0 0 0-4.712-1.939 6.625 6.625 0 0 0-4.712 1.939 6.518 6.518 0 0 0-1.948 4.635 6.538 6.538 0 0 0 1.948 4.653 6.625 6.625 0 0 0 4.712 1.939 6.624 6.624 0 0 0 4.712-1.939 6.62 6.62 0 0 0 1.4-2.054l.218-.507h-1.1l-.1.215a5.471 5.471 0 0 1-1.141 1.618 5.613 5.613 0 0 1-4 1.656 5.618 5.618 0 0 1-4-1.658 5.469 5.469 0 0 1-1.659-3.923 5.531 5.531 0 0 1 1.661-3.924 5.607 5.607 0 0 1 3.998-1.637z" class="cls-2" transform="translate(244.921 -341.544)"/>
                <path id="패스_46" d="M-9.671 341.9a6.762 6.762 0 0 0-4.747 1.93 6.47 6.47 0 0 0-1.98 4.636 6.466 6.466 0 0 0 1.978 4.634 6.759 6.759 0 0 0 4.749 1.933 6.757 6.757 0 0 0 4.765-1.931 6.467 6.467 0 0 0 1.98-4.636 6.467 6.467 0 0 0-1.981-4.636 6.758 6.758 0 0 0-4.764-1.93zm4.071 10.495a5.778 5.778 0 0 1-4.074 1.659 5.756 5.756 0 0 1-4.055-1.659 5.483 5.483 0 0 1-1.68-3.925 5.481 5.481 0 0 1 1.68-3.925 5.755 5.755 0 0 1 4.055-1.659 5.78 5.78 0 0 1 4.074 1.658 5.474 5.474 0 0 1 1.662 3.925 5.471 5.471 0 0 1-1.662 3.926z" class="cls-2" transform="translate(228.848 -341.544)"/>
                <path id="패스_47" d="M30.054 341.9l-5.269 7.518-5.255-7.518h-.563v13.164h.974v-10.908l4.551 6.544h.6l4.551-6.545v10.912h.974V341.9z" class="cls-2" transform="translate(211.382 -341.544)"/>
            </g>
        </g>
    </g>
</svg>
