<svg xmlns="http://www.w3.org/2000/svg" id="ic_piggycell" width="242" height="114.873" viewBox="0 0 242 114.873">
    <defs>
        <style>
            .cls-2{fill:#22b7e5}.cls-4{fill:#fff}
        </style>
    </defs>
    <path id="패스_48" fill="none" d="M-199.828 525.283h-.247l-2.087 9.263z" transform="translate(318.777 -478.788)"/>
    <path id="패스_49" d="M-238.144 522.173l2.087-9.264-6.072-.083-3.181-.047 1.278-2.906 14.8-33.557h-107.1a8.016 8.016 0 0 0-8.25 7.717v48.2a8.014 8.014 0 0 0 8.25 7.71h93.72l.125-.513z" class="cls-2" transform="translate(354.76 -466.417)"/>
    <path id="패스_50" fill="#fcab00" d="M-188.206 504.937l-9.023.216 4.94-28.836-1.819 4.13-13.349 30.272 6.52.091 2.471.035-7.341 29.1z" transform="translate(320.116 -466.418)"/>
    <path id="패스_51" d="M-292.47 508.833v6.649H-307v2.175h8.464a5.616 5.616 0 0 1 4.144 1.473 5.6 5.6 0 0 1 1.468 4.137v2.76a5.641 5.641 0 0 1-1.468 4.146 5.637 5.637 0 0 1-4.144 1.469h-26.97a5.613 5.613 0 0 1-4.139-1.469 5.614 5.614 0 0 1-1.472-4.146v-2.76a5.575 5.575 0 0 1 1.472-4.137 5.592 5.592 0 0 1 4.139-1.473h8.463v-2.175h-14.527v-6.649zM-307 491.274v2.262h13.668v6.428h-6.154l6.427 7.15h-10.9l-6.385-7.15h-2.986l-6.74 7.15h-10.908l6.7-7.15h-6.475v-6.428h13.71v-2.262zm4.752 33.309v-.324a1.051 1.051 0 0 0-.273-.743.992.992 0 0 0-.771-.3h-17.46a1.021 1.021 0 0 0-.776.3 1.068 1.068 0 0 0-.266.743v.324a1.043 1.043 0 0 0 .266.765 1.058 1.058 0 0 0 .776.274h17.46a1.026 1.026 0 0 0 .771-.274 1.027 1.027 0 0 0 .274-.765z" class="cls-4" transform="translate(351.472 -470.196)"/>
    <path id="패스_52" d="M-247.78 492.329v6.792h-5.653l6.058 16.422h-9l-3.352-9.589-3.389 9.589h-9.232l6.065-16.422h-6.021v-6.792zm-22.039 39.464v-13.352h10.048v6.564h27.694v6.787zm37.288-39.915v27.288h-10.044v-10.817h-5.658v-6.966h5.658v-9.506z" class="cls-4" transform="translate(336.511 -470.349)"/>
    <path id="패스_53" d="M-158.655 523.616v7.422h-20.46v-7.422h6.705v-5.883h7.328v5.883zM-178.2 492.89h18.636v7.24h-10.856v8.645h10.857v7.148H-178.2zm39.362-.409v39.464h-8.054v-17.334h-2.761v17.334h-7.642v-39.464h7.642v14.44h2.761v-14.44z" class="cls-2" transform="translate(312.955 -470.501)"/>
    <path id="패스_54" d="M-94.006 492.785v7.468h-6.017l6.923 31.085h-8.779l-4.528-21.449-4.477 21.449h-9l6.877-31.085h-6.429v-7.468zm14.837-.907v39.915h-10.037v-39.915z" class="cls-2" transform="translate(297.992 -470.349)"/>
    <g id="그룹_13" transform="translate(61.117 96.132)">
        <g id="그룹_12" transform="translate(0 0)">
            <path id="패스_55" d="M-276.422 597.57h2.135l.175 1.034h.074a4.717 4.717 0 0 1 2.936-1.279c2.455 0 3.914 2.008 3.914 5.069 0 3.418-2.046 5.394-4.234 5.394a3.716 3.716 0 0 1-2.478-1.088l.072 1.638v3.025h-2.6zm6.547 4.859c0-1.905-.6-2.954-1.975-2.954a2.8 2.8 0 0 0-1.974 1.034v4.378a2.782 2.782 0 0 0 1.814.747c1.21-.001 2.135-1.034 2.135-3.205z" class="cls-2" transform="translate(276.422 -593.121)"/>
            <path id="패스_56" d="M-261.389 593.124a1.434 1.434 0 0 1 1.567-1.425 1.428 1.428 0 0 1 1.546 1.425 1.447 1.447 0 0 1-1.546 1.424 1.454 1.454 0 0 1-1.567-1.424zm.25 3.025h2.6v9.966h-2.6z" class="cls-2" transform="translate(272.624 -591.7)"/>
            <path id="패스_57" d="M-254.658 609.3a2.414 2.414 0 0 1 1.423-2.065v-.09a1.891 1.891 0 0 1-.907-1.675 2.473 2.473 0 0 1 1.1-1.867v-.069a3.3 3.3 0 0 1-1.32-2.6c0-2.351 1.905-3.611 4.023-3.611a4.787 4.787 0 0 1 1.5.245h3.6v1.923h-1.712a2.5 2.5 0 0 1 .463 1.513c0 2.244-1.708 3.382-3.843 3.382a4.242 4.242 0 0 1-1.283-.234 1 1 0 0 0-.426.857c0 .533.391.816 1.565.816h1.693c2.4 0 3.7.749 3.7 2.492 0 2.011-2.083 3.542-5.41 3.542-2.35.003-4.166-.798-4.166-2.559zm7.083-.535c0-.712-.588-.892-1.656-.892h-1.209a5.643 5.643 0 0 1-1.389-.141 1.494 1.494 0 0 0-.657 1.156c0 .836.923 1.318 2.384 1.318 1.496 0 2.527-.66 2.527-1.44zm-1.21-7.83c0-1.176-.66-1.834-1.549-1.834s-1.565.659-1.565 1.834a1.616 1.616 0 0 0 1.565 1.832c.871.001 1.549-.658 1.549-1.831z" class="cls-2" transform="translate(270.923 -593.121)"/>
            <path id="패스_58" d="M-240.41 609.3a2.417 2.417 0 0 1 1.426-2.065v-.09a1.888 1.888 0 0 1-.907-1.675 2.473 2.473 0 0 1 1.1-1.867v-.069a3.3 3.3 0 0 1-1.318-2.6c0-2.351 1.9-3.611 4.022-3.611a4.764 4.764 0 0 1 1.495.245h3.6v1.923h-1.708a2.513 2.513 0 0 1 .464 1.513c0 2.244-1.709 3.382-3.846 3.382a4.226 4.226 0 0 1-1.28-.234 1 1 0 0 0-.426.857c0 .533.391.816 1.565.816h1.69c2.4 0 3.7.749 3.7 2.492 0 2.011-2.081 3.542-5.41 3.542-2.351.003-4.167-.798-4.167-2.559zm7.083-.535c0-.712-.587-.892-1.653-.892h-1.212a5.653 5.653 0 0 1-1.388-.141 1.5 1.5 0 0 0-.658 1.156c0 .836.927 1.318 2.386 1.318 1.494 0 2.525-.66 2.525-1.44zm-1.209-7.83c0-1.176-.658-1.834-1.549-1.834s-1.565.659-1.565 1.834a1.617 1.617 0 0 0 1.565 1.832c.873.001 1.549-.658 1.549-1.831z" class="cls-2" transform="translate(267.324 -593.121)"/>
            <path id="패스_59" d="M-225.977 611.428l.479-2.01a2.764 2.764 0 0 0 .694.123 1.909 1.909 0 0 0 1.87-1.511l.179-.589-3.882-9.789H-224l1.583 4.629c.3.889.554 1.849.838 2.812h.088c.233-.925.483-1.887.713-2.812l1.371-4.629h2.508l-3.54 10.27c-.874 2.35-1.939 3.7-4.165 3.7a4.25 4.25 0 0 1-1.373-.194z" class="cls-2" transform="translate(263.844 -593.204)"/>
            <path id="패스_60" d="M-212.411 602.571a4.976 4.976 0 0 1 5.09-5.246 4.352 4.352 0 0 1 2.9 1.1l-1.246 1.692a2.269 2.269 0 0 0-1.53-.659c-1.514 0-2.546 1.229-2.546 3.113s1.032 3.08 2.475 3.08a3.1 3.1 0 0 0 1.939-.8l1.032 1.727a4.953 4.953 0 0 1-3.256 1.211c-2.758-.002-4.858-1.923-4.858-5.218z" class="cls-2" transform="translate(260.25 -593.121)"/>
            <path id="패스_61" d="M-200.537 602.571c0-3.239 2.259-5.246 4.643-5.246 2.741 0 4.164 2.008 4.164 4.767a4.823 4.823 0 0 1-.124 1.191h-6.14a2.619 2.619 0 0 0 2.757 2.492 4.085 4.085 0 0 0 2.244-.695l.892 1.6a6.284 6.284 0 0 1-3.489 1.106c-2.776.001-4.947-1.94-4.947-5.215zm6.566-1.013c0-1.351-.6-2.207-1.886-2.207a2.247 2.247 0 0 0-2.171 2.207z" class="cls-2" transform="translate(257.25 -593.121)"/>
            <path id="패스_62" d="M-185.837 603.4v-11.411h2.6v11.531c0 .587.287.784.537.784a1.466 1.466 0 0 0 .353-.035l.322 1.939a3.56 3.56 0 0 1-1.355.233c-1.82-.001-2.457-1.196-2.457-3.041z" class="cls-2" transform="translate(253.536 -591.772)"/>
            <path id="패스_63" d="M-178.295 603.4v-11.411h2.6v11.531c0 .587.285.784.535.784a1.478 1.478 0 0 0 .355-.035l.321 1.939a3.548 3.548 0 0 1-1.353.233c-1.816-.001-2.458-1.196-2.458-3.041z" class="cls-2" transform="translate(251.631 -591.772)"/>
            <path id="패스_64" d="M-170.943 608.46a1.637 1.637 0 0 1 1.62-1.709 1.638 1.638 0 0 1 1.635 1.709 1.638 1.638 0 0 1-1.635 1.709 1.636 1.636 0 0 1-1.62-1.709z" class="cls-2" transform="translate(249.773 -595.502)"/>
            <path id="패스_65" d="M-164.094 602.571a4.974 4.974 0 0 1 5.09-5.246 4.353 4.353 0 0 1 2.9 1.1l-1.245 1.692a2.275 2.275 0 0 0-1.53-.659c-1.513 0-2.546 1.229-2.546 3.113s1.033 3.08 2.474 3.08a3.1 3.1 0 0 0 1.94-.8l1.033 1.727a4.96 4.96 0 0 1-3.258 1.211c-2.758-.002-4.858-1.923-4.858-5.218z" class="cls-2" transform="translate(248.043 -593.121)"/>
            <path id="패스_66" d="M-152.222 602.571c0-3.326 2.3-5.246 4.788-5.246s4.788 1.921 4.788 5.246a4.857 4.857 0 0 1-4.788 5.216 4.857 4.857 0 0 1-4.788-5.216zm6.9 0c0-1.884-.765-3.113-2.117-3.113s-2.118 1.229-2.118 3.113.766 3.08 2.118 3.08 2.121-1.209 2.121-3.08z" class="cls-2" transform="translate(245.043 -593.121)"/>
            <path id="패스_67" d="M-136.449 597.57h2.134l.176 1.335h.071a4.2 4.2 0 0 1 3.068-1.58 2.715 2.715 0 0 1 2.741 1.741 4.419 4.419 0 0 1 3.167-1.741c2.117 0 3.1 1.492 3.1 4v6.21h-2.616v-5.89c0-1.529-.445-2.082-1.389-2.082a2.9 2.9 0 0 0-1.921 1.123v6.85h-2.617v-5.89c0-1.529-.445-2.082-1.389-2.082a2.9 2.9 0 0 0-1.922 1.123v6.85h-2.6z" class="cls-2" transform="translate(241.059 -593.121)"/>
        </g>
    </g>
    <path id="패스_68" fill="#1dbae9" d="M-42.4 537.879h2c2.193 0 3.986-2.983 3.986-6.638v-34.526c0-3.645-1.794-6.636-3.986-6.636h-2z" transform="translate(278.414 -469.894)"/>
    <path id="패스_69" fill="#22baf1" d="M-140.215 546.734H-342.6c-8.6 0-15.6-6.534-15.6-14.567v-54.529c0-8.031 7-14.568 15.6-14.568h202.385c8.6 0 15.6 6.536 15.6 14.568v54.529c.004 8.033-6.998 14.567-15.6 14.567zM-342.6 467.812c-5.988 0-10.859 4.408-10.859 9.826v54.529c0 5.419 4.871 9.827 10.859 9.827h202.385c5.989 0 10.862-4.408 10.862-9.827v-54.529c0-5.419-4.873-9.826-10.862-9.826z" transform="translate(358.2 -463.071)"/>
</svg>
