<svg xmlns="http://www.w3.org/2000/svg" width="595" height="322" viewBox="0 0 595 322">
    <defs>
        <filter id="사각형_202" width="236" height="51" x="19.5" y="231.5" filterUnits="userSpaceOnUse">
            <feOffset/>
            <feGaussianBlur result="blur" stdDeviation="2.5"/>
            <feFlood flood-color="#fff" flood-opacity=".725"/>
            <feComposite in2="blur" operator="in"/>
            <feComposite in="SourceGraphic"/>
        </filter>
        <filter id="사각형_204" width="236" height="66" x="339.5" y="224.5" filterUnits="userSpaceOnUse">
            <feOffset/>
            <feGaussianBlur result="blur-2" stdDeviation="2.5"/>
            <feFlood flood-color="#fff" flood-opacity=".725"/>
            <feComposite in2="blur-2" operator="in"/>
            <feComposite in="SourceGraphic"/>
        </filter>
        <filter id="사각형_201" width="236" height="51" x="19.5" y="134.5" filterUnits="userSpaceOnUse">
            <feOffset/>
            <feGaussianBlur result="blur-3" stdDeviation="2.5"/>
            <feFlood flood-color="#fff" flood-opacity=".725"/>
            <feComposite in2="blur-3" operator="in"/>
            <feComposite in="SourceGraphic"/>
        </filter>
        <filter id="사각형_203" width="236" height="51" x="339.5" y="134.5" filterUnits="userSpaceOnUse">
            <feOffset/>
            <feGaussianBlur result="blur-4" stdDeviation="2.5"/>
            <feFlood flood-color="#fff" flood-opacity=".725"/>
            <feComposite in2="blur-4" operator="in"/>
            <feComposite in="SourceGraphic"/>
        </filter>
        <style>
            .cls-1{fill:rgba(255,255,255,.08)}.cls-2,.cls-3{fill:none;stroke:#fff}.cls-3{stroke-linecap:round;stroke-miterlimit:10;stroke-width:2px}.cls-4,.cls-7,.cls-8{fill:#fff}.cls-4{font-size:20px;font-family:Roboto-Bold,Roboto;font-weight:700}.cls-7{font-size:30px;font-family:Roboto-Black,Roboto;font-weight:800}
        </style>
    </defs>
    <g id="img_adstation" transform="translate(-68 -4416)">
        <path id="사각형_199" d="M0 0H275V322H0z" class="cls-1" transform="translate(68 4416)"/>
        <path id="사각형_486" d="M0 0H275V322H0z" class="cls-1" transform="translate(388 4416)"/>
        <g filter="url(#사각형_202)" transform="translate(68 4416)">
            <rect id="사각형_202-2" width="220" height="35" class="cls-2" rx="2.277" transform="translate(27.5 239.5)"/>
        </g>
        <g filter="url(#사각형_204)" transform="translate(68 4416)">
            <rect id="사각형_204-2" width="220" height="50" class="cls-2" rx="2.277" transform="translate(347.5 232.5)"/>
        </g>
        <g filter="url(#사각형_201)" transform="translate(68 4416)">
            <rect id="사각형_201-2" width="220" height="35" class="cls-2" rx="2.277" transform="translate(27.5 142.5)"/>
        </g>
        <g filter="url(#사각형_203)" transform="translate(68 4416)">
            <rect id="사각형_203-2" width="220" height="35" class="cls-2" rx="2.277" transform="translate(347.5 142.5)"/>
        </g>
        <path id="선_87" d="M0 0L85 0" class="cls-3" transform="translate(330.5 4576.5)"/>
        <path id="선_88" d="M0 46L0 0" class="cls-3" transform="translate(205.5 4594.5)"/>
        <path id="선_182" d="M0 39L0 0" class="cls-3" transform="translate(525.5 4608.5)"/>
        <text id="Recharge_Purchased" class="cls-4" transform="translate(206 4584)">
            <tspan x="-93.164" y="0">Recharge Purchased</tspan>
        </text>
        <text id="Claim_Code" class="cls-4" transform="translate(526 4584)">
            <tspan x="-51.592" y="0">Claim Code</tspan>
        </text>
        <text id="AD_on_AD_-_EYE" class="cls-4" transform="translate(206 4681)">
            <tspan x="-68.979" y="0">AD on AD - EYE</tspan>
        </text>
        <text id="Infraction_with_AD_By_scanning_QR_" fill="#fff" font-family="Roboto-Regular, Roboto" font-size="20px" transform="translate(526 4671)">
            <tspan x="-79.233" y="0">Infraction with AD</tspan><tspan font-family="Roboto-Bold, Roboto" font-weight="700"><tspan x="-75.181" y="20">By scanning ‘QR’</tspan></tspan>
        </text>
        <text id="Advertiser" class="cls-7" transform="translate(206 4510.02)">
            <tspan x="-71.426" y="0">Advertiser</tspan>
        </text>
        <text id="User" class="cls-7" transform="translate(526 4510.02)">
            <tspan x="-31.501" y="0">User</tspan>
        </text>
        <g id="icon" transform="rotate(-90.97 1360.015 4212.981)">
            <path id="패스_114" d="M978.995 3380.584a1 1 0 0 1-.707-1.707l6.293-6.293-6.293-6.293a1 1 0 0 1 1.414-1.414l7 7a1 1 0 0 1 0 1.416l-7 7a1 1 0 0 1-.707.291z" class="cls-8"/>
        </g>
        <g id="icon-2" transform="rotate(-180 653.998 3974.292)">
            <path id="패스_114-2" d="M978.995 3380.584a1 1 0 0 1-.707-1.707l6.293-6.293-6.293-6.293a1 1 0 0 1 1.414-1.414l7 7a1 1 0 0 1 0 1.416l-7 7a1 1 0 0 1-.707.291z" class="cls-8"/>
        </g>
        <g id="icon-3" transform="rotate(90 -41.965 3620.549)">
            <path id="패스_114-3" d="M978.995 3380.584a1 1 0 0 1-.707-1.707l6.293-6.293-6.293-6.293a1 1 0 0 1 1.414-1.414l7 7a1 1 0 0 1 0 1.416l-7 7a1 1 0 0 1-.707.291z" class="cls-8"/>
        </g>
        <path id="선_183" d="M85 0L0 0" class="cls-3" transform="translate(315.5 4673)"/>
        <g id="icon-4" transform="translate(-576.496 1300.417)">
            <path id="패스_114-4" d="M978.995 3380.584a1 1 0 0 1-.707-1.707l6.293-6.293-6.293-6.293a1 1 0 0 1 1.414-1.414l7 7a1 1 0 0 1 0 1.416l-7 7a1 1 0 0 1-.707.291z" class="cls-8"/>
        </g>
        <g id="icon-5" transform="translate(-698.995 730.928)">
            <path id="패스_317" d="M895 3738.092a1 1 0 0 1-.534-1.847l4.287-2.7a2.859 2.859 0 0 1 2.9-.171 7.412 7.412 0 0 0 4.877-.031 2.8 2.8 0 0 1 2.813.111l4.207 2.807a1 1 0 0 1-1.111 1.664l-4.193-2.8a.776.776 0 0 0-.786-.013 9.248 9.248 0 0 1-6.674.063.9.9 0 0 0-.927.031l-4.331 2.73a.993.993 0 0 1-.528.156z" class="cls-8"/>
            <path id="패스_318" d="M903.944 3731.584a5 5 0 1 1 5-5 5.006 5.006 0 0 1-5 5zm0-8a3 3 0 1 0 3 3 3 3 0 0 0-3-3z" class="cls-8"/>
        </g>
        <g id="icon-6" transform="translate(-449.995 728.326)">
            <path id="패스_319" d="M963 3738.092a1 1 0 0 1-.534-1.847l4.287-2.7a2.859 2.859 0 0 1 2.9-.171 7.412 7.412 0 0 0 4.877-.031 2.8 2.8 0 0 1 2.813.111l4.207 2.807a1 1 0 0 1-1.111 1.664l-4.193-2.8a.776.776 0 0 0-.786-.013 9.248 9.248 0 0 1-6.674.063.9.9 0 0 0-.927.031l-4.331 2.73a.993.993 0 0 1-.528.156z" class="cls-8"/>
            <path id="패스_320" d="M971.944 3731.584a5 5 0 1 1 5-5 5.006 5.006 0 0 1-5 5zm0-8a3 3 0 1 0 3 3 3 3 0 0 0-3-3z" class="cls-8"/>
            <path id="패스_321" d="M988.994 3734.569a1 1 0 0 1-.554-.168l-3.028-2.02a.282.282 0 0 0-.285 0 6.9 6.9 0 0 1-5.069.05.4.4 0 0 0-.389 0 1 1 0 0 1-1.155-1.633 2.355 2.355 0 0 1 2.411-.168 5.09 5.09 0 0 0 3.272-.019 2.294 2.294 0 0 1 2.311.093l3.043 2.029a1 1 0 0 1-.557 1.832z" class="cls-8"/>
            <path id="패스_322" d="M982.458 3729.869a3.888 3.888 0 1 1 3.89-3.889 3.892 3.892 0 0 1-3.89 3.889zm0-5.777a1.888 1.888 0 1 0 1.89 1.888 1.89 1.89 0 0 0-1.89-1.888z" class="cls-8"/>
        </g>
    </g>
</svg>
