<svg xmlns="http://www.w3.org/2000/svg" width="1088" height="467" viewBox="0 0 1088 467">
    <defs>
        <style>
            .cls-1,.cls-14,.cls-2,.cls-4{fill:#fff}.cls-1{font-size:30px;font-family:Roboto-Black,Roboto;font-weight:800}.cls-14,.cls-2{font-size:20px}.cls-2{font-family:Roboto-Bold,Roboto;font-weight:700}.cls-3,.cls-7{fill:none}.cls-6{fill:#f0b90b}.cls-7{stroke:#fff;stroke-miterlimit:10;stroke-width:2px;stroke-linecap:round}.cls-9{fill:#232423}.cls-11{fill:#6f7071}.cls-13{fill:rgba(255,255,255,.08)}.cls-14{font-family:Roboto-Regular,Roboto}
        </style>
    </defs>
    <g id="img_rechargingswap" transform="translate(-416 -1318)">
        <text id="Recharging_Swap" class="cls-1" transform="translate(960 1516)">
            <tspan x="-77.695" y="0">Recharging</tspan><tspan x="-36.687" y="39">Swap</tspan>
        </text>
        <g id="그룹_177" transform="translate(2 112)">
            <text id="HRC_-_20" class="cls-2" transform="translate(1058 1665)">
                <tspan x="-40.322" y="0">HRC - 20</tspan>
            </text>
            <circle id="타원_24" cx="48" cy="48" r="48" class="cls-3" transform="translate(1010 1545)"/>
            <g id="그룹_173" transform="translate(-92 -116.165)">
                <path id="패스_327" d="M-973.151 700.406c0-10.575-5.295-19.673-9.32-22.635-.019-.006-.306-.168-.281.254 0 .006-.006.006-.006.013-.332 20.424-11.049 25.957-16.943 33.415-13.6 17.208-.951 36.073 11.929 39.557 7.209 1.95-1.665-3.452-2.807-14.866-1.385-13.792 17.428-24.318 17.428-35.738z" class="cls-4" transform="translate(2131.617 994.429)"/>
                <path id="패스_328" fill="#01943f" d="M-869.526 820.283c-.083-.056-.2-.093-.281.037-.223 2.571-2.922 8.073-6.341 13.121-11.6 17.127-4.989 25.386-1.27 29.82 2.156 2.577 0 0 5.391-2.633a23.682 23.682 0 0 0 11.616-18.282 26.171 26.171 0 0 0-9.115-22.063z" transform="translate(2034.248 881.507)"/>
            </g>
        </g>
        <g id="그룹_176" transform="translate(89)">
            <text id="BEP_-_20" class="cls-2" transform="translate(771 1780)">
                <tspan x="-38.789" y="0">BEP - 20</tspan>
            </text>
            <g id="그룹_174">
                <circle id="타원_25" cx="48" cy="48" r="48" class="cls-3" transform="translate(723 1660)"/>
                <g id="그룹_82" transform="translate(602.372 1370.77)">
                    <path id="패스_186" d="M152.095 385.86l-6.819 6.814-6.814-6.814 6.814-6.814z" class="cls-6" transform="translate(0 -48.464)"/>
                    <path id="패스_187" d="M192.859 320.851l11.676 11.682 6.814-6.814-18.49-18.49-18.49 18.49 6.814 6.814z" class="cls-6" transform="translate(-24.232)"/>
                    <path id="패스_188" d="M288.925 379.046l-6.814 6.814 6.814 6.814 6.808-6.814z" class="cls-6" transform="translate(-96.939 -48.464)"/>
                    <path id="패스_189" d="M192.859 426.648l-11.676-11.676-6.814 6.808 18.49 18.49 18.49-18.49-6.814-6.808z" class="cls-6" transform="translate(-24.232 -72.708)"/>
                    <path id="사각형_168" d="M0 0H9.636V9.636H0z" class="cls-6" transform="translate(161.814 337.396) rotate(-45)"/>
                </g>
            </g>
        </g>
        <g id="icon" transform="translate(22.005 -1661.584)">
            <path id="패스_114" d="M978.995 3380.584a1 1 0 0 1-.707-1.707l6.293-6.293-6.293-6.293a1 1 0 0 1 1.414-1.414l7 7a1 1 0 0 1 0 1.416l-7 7a1 1 0 0 1-.707.291z" class="cls-4"/>
        </g>
        <g id="icon-2" transform="translate(1899.996 5084.084) rotate(180)">
            <path id="패스_114-2" d="M978.995 3380.584a1 1 0 0 1-.707-1.707l6.293-6.293-6.293-6.293a1 1 0 0 1 1.414-1.414l7 7a1 1 0 0 1 0 1.416l-7 7a1 1 0 0 1-.707.291z" class="cls-4"/>
        </g>
        <path id="선_127" d="M0 0L25.561 0" class="cls-7" transform="translate(1036.939 1380)"/>
        <path id="선_128" fill="none" stroke="#fff" stroke-linecap="square" stroke-miterlimit="10" stroke-width="2px" d="M0 0L23.56 0" transform="translate(860.5 1380)"/>
        <path id="선_130" d="M0 263L0 0" class="cls-7" transform="translate(1062.5 1380)"/>
        <path id="선_508" d="M0 0L78.5 0" class="cls-7" transform="translate(922 1711.5)"/>
        <path id="선_507" d="M0 263L0 0" class="cls-7" transform="translate(860 1380)"/>
        <g id="그룹_178">
            <text id="ERC_-_20" class="cls-2" transform="translate(961.5 1437)">
                <tspan x="-38.882" y="0">ERC - 20</tspan>
            </text>
            <g id="그룹_175" transform="translate(0.5)">
                <circle id="타원_23" cx="48" cy="48" r="48" class="cls-3" transform="translate(912 1318)"/>
                <g id="그룹_81" transform="translate(939 1331)">
                    <path id="패스_211" d="M464.038 322.828V340.2l21.326-29.954z" class="cls-9" transform="translate(-442.713 -270.814)"/>
                    <path id="패스_212" fill="#030504" d="M464.038 219.982v22.3l21.325-12.614z" transform="translate(-442.713 -194.286)"/>
                    <path id="패스_213" d="M464.038 51.13v25.7l21.325 9.685z" class="cls-9" transform="translate(-442.713 -51.13)"/>
                    <path id="패스_214" d="M345.234 322.828V340.2l-21.326-29.954z" class="cls-11" transform="translate(-323.908 -270.814)"/>
                    <path id="패스_215" fill="#272828" d="M345.236 219.982v22.3l-21.325-12.614z" transform="translate(-323.911 -194.286)"/>
                    <path id="패스_216" d="M345.236 51.13v25.7l-21.325 9.685z" class="cls-11" transform="translate(-323.911 -51.13)"/>
                </g>
            </g>
        </g>
        <g id="icon-3" transform="translate(-93.495 -1992.584)">
            <path id="패스_114-3" d="M978.995 3380.584a1 1 0 0 1-.707-1.707l6.293-6.293-6.293-6.293a1 1 0 0 1 1.414-1.414l7 7a1 1 0 0 1 0 1.416l-7 7a1 1 0 0 1-.707.291z" class="cls-4"/>
        </g>
        <g id="icon-4" transform="translate(4435.084 665.005) rotate(90)">
            <path id="패스_114-4" d="M978.995 3380.584a1 1 0 0 1-.707-1.707l6.293-6.293-6.293-6.293a1 1 0 0 1 1.414-1.414l7 7a1 1 0 0 1 0 1.416l-7 7a1 1 0 0 1-.707.291z" class="cls-4"/>
        </g>
        <g id="icon-5" transform="translate(4232.584 665.005) rotate(90)">
            <path id="패스_114-5" d="M978.995 3380.584a1 1 0 0 1-.707-1.707l6.293-6.293-6.293-6.293a1 1 0 0 1 1.414-1.414l7 7a1 1 0 0 1 0 1.416l-7 7a1 1 0 0 1-.707.291z" class="cls-4"/>
        </g>
        <g id="icon-6" transform="translate(2014.496 4752.584) rotate(180)">
            <path id="패스_114-6" d="M978.995 3380.584a1 1 0 0 1-.707-1.707l6.293-6.293-6.293-6.293a1 1 0 0 1 1.414-1.414l7 7a1 1 0 0 1 0 1.416l-7 7a1 1 0 0 1-.707.291z" class="cls-4"/>
        </g>
        <path id="사각형_344" d="M0 0H356V225H0z" class="cls-13" transform="translate(1148 1458)"/>
        <path id="사각형_579" d="M0 0H356V225H0z" class="cls-13" transform="translate(416 1445)"/>
        <text id="Liquidity_Contribution" class="cls-1" transform="translate(1168 1529)">
            <tspan x="0" y="0">Liquidity Contribution</tspan>
        </text>
        <text id="Liquidity_Swap" class="cls-1" transform="translate(436 1516)">
            <tspan x="0" y="0">Liquidity Swap</tspan>
        </text>
        <text id="RCG_HT:_Integration_with_Mdex_RCG_ETH:_Integration_with_Uniswap_RCG_BNB:_Integration_with_Pancake" class="cls-14" transform="translate(1168 1557)">
            <tspan x="0" y="21">RCG/HT: Integration with Mdex</tspan><tspan x="0" y="51">RCG/ETH: Integration with Uniswap</tspan><tspan x="0" y="81">RCG/BNB: Integration with Pancake</tspan>
        </text>
        <text id="RCG_HT:_Integration_with_Mdex_RCG_ETH:_Integration_with_Uniswap_RCG_BNB:_Integration_with_Pancake-2" class="cls-14" transform="translate(436 1544)">
            <tspan x="0" y="21">RCG/HT: Integration with Mdex</tspan><tspan x="0" y="51">RCG/ETH: Integration with Uniswap</tspan><tspan x="0" y="81">RCG/BNB: Integration with Pancake</tspan>
        </text>
        <g id="icon-7" transform="translate(156.005 -1852.834)">
            <path id="패스_114-7" d="M978.995 3380.584a1 1 0 0 1-.707-1.707l6.293-6.293-6.293-6.293a1 1 0 0 1 1.414-1.414l7 7a1 1 0 0 1 0 1.416l-7 7a1 1 0 0 1-.707.291z" class="cls-4"/>
        </g>
        <g id="icon-8" transform="translate(2054.996 4892.834) rotate(180)">
            <path id="패스_114-8" d="M978.995 3380.584a1 1 0 0 1-.707-1.707l6.293-6.293-6.293-6.293a1 1 0 0 1 1.414-1.414l7 7a1 1 0 0 1 0 1.416l-7 7a1 1 0 0 1-.707.291z" class="cls-4"/>
        </g>
        <path id="선_509" d="M0 0L57.5 0" class="cls-7" transform="translate(1077 1520.25)"/>
        <g id="icon-9" transform="translate(-132.497 -1852.834)">
            <path id="패스_114-9" d="M978.995 3380.584a1 1 0 0 1-.707-1.707l6.293-6.293-6.293-6.293a1 1 0 0 1 1.414-1.414l7 7a1 1 0 0 1 0 1.416l-7 7a1 1 0 0 1-.707.291z" class="cls-4"/>
        </g>
        <g id="icon-10" transform="translate(1766.494 4892.834) rotate(180)">
            <path id="패스_114-10" d="M978.995 3380.584a1 1 0 0 1-.707-1.707l6.293-6.293-6.293-6.293a1 1 0 0 1 1.414-1.414l7 7a1 1 0 0 1 0 1.416l-7 7a1 1 0 0 1-.707.291z" class="cls-4"/>
        </g>
        <path id="선_510" d="M0 0L57.5 0" class="cls-7" transform="translate(788.498 1520.25)"/>
    </g>
</svg>
