<svg xmlns="http://www.w3.org/2000/svg" width="120.001" height="120" viewBox="0 0 120.001 120">
    <g>
        <path fill="#1f1f21" d="M747.174 595.466a60 60 0 1 0 59.979 60.087 59.99 59.99 0 0 0-59.979-60.087zm21.3 64.975c-1.243 7.858-5.047 13.968-12.55 17.258a22.713 22.713 0 0 1-18.1.113 20.323 20.323 0 0 1-12.648-18.835c.12-6.062 2.909-10.693 7.968-13.979.636-.413 1.318-.758 1.988-1.119a1.575 1.575 0 0 1 1.872.182q3.515 2.915 7.009 5.855c.639.538.533 1.052-.163 1.56a34.086 34.086 0 0 0-3.367 2.621 6.824 6.824 0 0 0-1.025 9.163 9.429 9.429 0 0 0 7.157 4.313 6.048 6.048 0 0 0 2.056-.162 9.425 9.425 0 0 0 6.493-5.732 5.37 5.37 0 0 0-.607-5.4 13.665 13.665 0 0 0-2.344-2.61q-10.582-9.024-21.223-17.979a8.858 8.858 0 0 0-6.077-2.449 8.433 8.433 0 0 0-6.319 3.109 8.865 8.865 0 0 0-2.016 5.694c-.056 2.4-.013 4.8-.013 7.2v14.878h.031c0 7.055.011 14.11-.013 21.165a12.907 12.907 0 0 1-.31 2.875 2.31 2.31 0 0 1-3.152 1.933c-5.6-1.506-8.593-5.15-8.861-10.094-.2-3.727-.135-7.47-.127-11.206.018-9.065.01-18.13.128-27.194.1-7.954 3.622-14.1 10.508-18.055 7.082-4.065 14.231-3.885 21.081.692a134.94 134.94 0 0 1 15.693 12.476c4.454 4.048 8.825 8.188 13.205 12.317a12.236 12.236 0 0 1 3.722 11.409zm21.426 20.818a8.016 8.016 0 0 1-2.7 4.932 19.507 19.507 0 0 1-5.143 3.34 7.2 7.2 0 0 1-1.986.533c-.844.1-1.187-.261-1.206-1.119-.037-1.7-.063-3.4-.064-5.106q-.011-9.655 0-19.309h-.064v-20.342a16.747 16.747 0 0 0-.682-5.259c-1.559-4.769-5.682-7.17-10.625-5.832a10.722 10.722 0 0 0-4.563 2.355c-1.208 1.1-2.5 2.121-3.729 3.2a.878.878 0 0 1-1.333.029q-3.626-3.158-7.273-6.291c-.428-.369-.652-.8-.144-1.217 2.541-2.095 4.893-4.436 7.8-6.062 8.583-4.8 16.907-4 24.893 1.352 3.881 2.6 5.872 6.512 6.7 11.054.587 3.207.354 6.439.363 9.664q.029 10.511.039 21.021c.005 3.3.025 6.6-.008 9.895a22.165 22.165 0 0 1-.275 3.162z" transform="translate(-687.152 -595.466) translate(0)"/>
        <path fill="#fff" d="M870.178 805.525c-4.38-4.129-8.751-8.269-13.205-12.317a134.94 134.94 0 0 0-15.693-12.476c-6.85-4.577-14-4.757-21.081-.692-6.886 3.952-10.4 10.1-10.508 18.055-.118 9.064-.11 18.129-.128 27.194-.008 3.736-.074 7.479.127 11.206.267 4.944 3.256 8.588 8.861 10.094a2.31 2.31 0 0 0 3.152-1.933 12.911 12.911 0 0 0 .31-2.875c.025-7.055.013-14.11.013-21.165h-.031v-14.879c0-2.4-.043-4.8.013-7.2a8.866 8.866 0 0 1 2.016-5.694 8.433 8.433 0 0 1 6.319-3.109 8.858 8.858 0 0 1 6.077 2.449q10.617 8.983 21.223 17.979a13.672 13.672 0 0 1 2.344 2.61 5.37 5.37 0 0 1 .607 5.4 9.425 9.425 0 0 1-6.493 5.732 6.048 6.048 0 0 1-2.056.162 9.428 9.428 0 0 1-7.157-4.313 6.824 6.824 0 0 1 1.025-9.163 34.1 34.1 0 0 1 3.367-2.621c.7-.508.8-1.022.163-1.56q-3.492-2.942-7.009-5.855a1.575 1.575 0 0 0-1.872-.182c-.669.361-1.351.706-1.988 1.119-5.059 3.286-7.848 7.916-7.968 13.979a20.323 20.323 0 0 0 12.644 18.84 22.712 22.712 0 0 0 18.1-.113c7.5-3.29 11.306-9.4 12.55-17.258a12.236 12.236 0 0 0-3.722-11.414z" transform="translate(-687.152 -595.466) translate(-105.433 -156.499)"/>
        <path fill="#5dabde" d="M1181.462 832.736q-.016-10.511-.039-21.021c-.009-3.225.224-6.457-.363-9.664-.832-4.543-2.822-8.451-6.7-11.054-7.987-5.356-16.311-6.156-24.894-1.352-2.906 1.626-5.258 3.967-7.8 6.062-.508.419-.284.848.144 1.217q3.641 3.14 7.273 6.291a.878.878 0 0 0 1.333-.029c1.234-1.076 2.521-2.094 3.729-3.2a10.722 10.722 0 0 1 4.563-2.355c4.943-1.339 9.066 1.062 10.625 5.832a16.743 16.743 0 0 1 .682 5.259v20.342h.064v19.309c0 1.7.027 3.4.064 5.107.019.858.362 1.216 1.206 1.119a7.2 7.2 0 0 0 1.986-.533 19.507 19.507 0 0 0 5.142-3.34 8.015 8.015 0 0 0 2.7-4.932 22.181 22.181 0 0 0 .272-3.165c.039-3.296.018-6.594.013-9.893z" transform="translate(-687.152 -595.466) translate(-391.278 -164.538)"/>
    </g>
</svg>
