<svg xmlns="http://www.w3.org/2000/svg" width="120" height="138.161" viewBox="0 0 120 138.161">
    <defs>
        <style>
            .cls-1,.cls-2{fill:#fff}.cls-2{fill-rule:evenodd}
        </style>
    </defs>
    <g id="Img_uniswap" transform="translate(-17.751)">
        <g id="그룹_46" transform="translate(56.176 31.001)">
            <path id="패스_126" d="M108.448 61.014c-1.492-.221-1.574-.276-.856-.359a23.452 23.452 0 0 1 6.712.58c5.138 1.215 9.75 4.337 14.667 9.833l1.271 1.492 1.851-.276a40.033 40.033 0 0 1 22.815 2.845 30.978 30.978 0 0 1 5.138 2.983 6.945 6.945 0 0 1 .5 1.989c.5 3.342.276 5.856-.773 7.762a2.083 2.083 0 0 0-.221 2.293 2.125 2.125 0 0 0 1.933 1.215c1.712 0 3.48-2.707 4.336-6.491l.359-1.492.635.718c3.646 4.06 6.491 9.7 6.905 13.672l.138 1.077-.635-.939a12.473 12.473 0 0 0-3.425-3.646c-2.431-1.63-5-2.127-11.767-2.486-6.132-.359-9.612-.856-13.037-1.989-5.856-1.933-8.839-4.419-15.744-13.617a67.241 67.241 0 0 0-6.905-8.121 24.2 24.2 0 0 0-13.897-7.043z" class="cls-1" transform="translate(-99.83 -60.582)"/>
            <path id="패스_127" d="M204.254 72.067a15.519 15.519 0 0 1 1.271-6.132 5.551 5.551 0 0 1 .635-1.215c.083 0-.083.5-.276 1.077a13.464 13.464 0 0 0-.276 6.27c.5 3.2.718 3.646 4.143 7.126 1.574 1.63 3.425 3.7 4.143 4.558l1.215 1.574-1.215-1.132a43.343 43.343 0 0 0-5.69-4.5c-.5-.276-.58-.276-.939.083-.276.276-.359.718-.359 2.79a15.306 15.306 0 0 1-1.574 7.264c-.58 1.077-.635.856-.138-.359.359-.939.414-1.353.414-4.419 0-6.187-.718-7.706-5.055-10.192-1.077-.635-2.928-1.574-3.977-2.072a17.176 17.176 0 0 1-1.933-.939 34.262 34.262 0 0 1 5.994 1.768c2.486.994 2.928 1.077 3.2.994.197-.169.335-.749.417-2.544z" class="cls-1" transform="translate(-142.549 -62.602)"/>
            <path id="패스_128" d="M111.056 83.808c-2.983-4.143-4.917-10.551-4.5-15.33l.138-1.492.718.138a17.417 17.417 0 0 1 4.558 1.713c2.845 1.713 4.143 4.06 5.331 9.916.359 1.712.856 3.7 1.077 4.337a26.184 26.184 0 0 0 2.845 5.138c.773 1.132.276 1.713-1.492 1.574-2.709-.302-6.331-2.79-8.675-5.994z" class="cls-1" transform="translate(-99.51 -63.709)"/>
            <path id="패스_129" d="M188.091 140.233c-14.114-5.69-19.086-10.607-19.086-18.948 0-1.215.083-2.21.083-2.21a8.775 8.775 0 0 1 1.215.939c2.845 2.293 6.049 3.287 14.971 4.558a60.055 60.055 0 0 1 10.91 2.293c8.618 2.845 13.976 8.7 15.247 16.6a29.151 29.151 0 0 1-.414 8.894c-.5 1.768-1.933 5.055-2.293 5.138-.083 0-.221-.359-.221-.939a11.563 11.563 0 0 0-4.143-8.065c-3.01-2.542-6.85-4.476-16.269-8.26z" class="cls-1" transform="translate(-130.032 -89.144)"/>
            <path id="패스_130" d="M157.9 161.136a15.237 15.237 0 0 0-.718-2.983l-.359-1.077.635.773a12.714 12.714 0 0 1 2.293 4.143 8.856 8.856 0 0 1 .5 3.978 9.31 9.31 0 0 1-.5 3.839 13.056 13.056 0 0 1-2.983 4.778c-2.569 2.624-5.911 4.06-10.689 4.7-.856.083-3.287.276-5.414.414a42.118 42.118 0 0 0-12.126 1.989 2.566 2.566 0 0 1-.939.221c-.138-.138 2.071-1.436 3.839-2.293 2.486-1.215 5.055-1.851 10.689-2.845a48.768 48.768 0 0 0 6.353-1.271c7.07-2.185 10.55-7.654 9.419-14.366z" class="cls-1" transform="translate(-109.81 -107.699)"/>
            <path id="패스_131" d="M197.777 175.763a16.5 16.5 0 0 1-1.271-11.546c.138-.359.276-.718.414-.718a3.152 3.152 0 0 1 .994.5c.856.58 2.624 1.574 7.209 4.06 5.773 3.149 9.06 5.552 11.325 8.342a17.781 17.781 0 0 1 3.784 8.618 28.224 28.224 0 0 1-.359 8.48 21.012 21.012 0 0 1-10.33 13.672 12.729 12.729 0 0 1-1.492.718 6.855 6.855 0 0 1 .635-1.574 14.077 14.077 0 0 0 .635-11.049c-.773-2.431-2.431-5.331-5.69-10.275-3.948-5.665-4.859-7.184-5.854-9.228z" class="cls-1" transform="translate(-143.198 -110.835)"/>
            <path id="패스_132" d="M94.334 221.658a39.063 39.063 0 0 1 17.733-8.563 26.9 26.9 0 0 1 9.2.359c3.784.994 7.209 3.149 8.977 5.773 1.713 2.569 2.486 4.778 3.287 9.695.276 1.934.635 3.922.718 4.337a9.6 9.6 0 0 0 3.149 5.635c2.21 1.63 6.049 1.712 9.833.276a5.293 5.293 0 0 1 1.215-.359c.138.138-1.768 1.436-3.066 2.072a9.936 9.936 0 0 1-5.138 1.215c-3.425 0-6.353-1.768-8.7-5.331a42.442 42.442 0 0 1-2.348-4.7c-2.486-5.773-3.784-7.485-6.712-9.419a8.8 8.8 0 0 0-8.342-.773 5.358 5.358 0 0 0-1.851 8.342 7.1 7.1 0 0 0 4.06 2.127 4.351 4.351 0 0 0 4.917-4.337 3.383 3.383 0 0 0-2.348-3.48c-2.293-.994-4.779.138-4.7 2.348a1.956 1.956 0 0 0 1.353 1.933c.58.276.58.276.138.221-2.072-.414-2.569-2.983-.939-4.64 1.989-1.989 6.187-1.132 7.623 1.63a7.38 7.38 0 0 1 .138 4.834 6.639 6.639 0 0 1-8.121 3.839c-2.348-.635-3.342-1.271-6.187-4.2-5-5.138-6.905-6.132-14.032-7.209l-1.353-.221z" class="cls-1" transform="translate(-92.842 -134.937)"/>
        </g>
        <path id="패스_133" d="M20.185 3.066c16.6 20.163 42.178 51.514 43.476 53.226 1.077 1.436.635 2.79-1.132 3.784a10.7 10.7 0 0 1-4.06 1.132 5.26 5.26 0 0 1-3.425-1.492c-.635-.635-3.425-4.7-9.7-14.474-4.778-7.485-8.839-13.673-8.894-13.755-.276-.138-.276-.138 8.4 15.385 5.5 9.75 7.264 13.258 7.264 13.672 0 .939-.276 1.436-1.436 2.707-1.933 2.127-2.79 4.557-3.425 9.612-.718 5.635-2.624 9.612-8.121 16.379-3.2 3.977-3.7 4.7-4.5 6.353a12.384 12.384 0 0 0-1.436 5.69 17.638 17.638 0 0 0 .939 6.988 23.7 23.7 0 0 0 3.425 6.712c1.63 2.569 2.624 4.5 2.624 5.193 0 .58.138.58 2.707 0 6.132-1.436 11.187-3.839 13.976-6.85a6.422 6.422 0 0 0 2.127-5.414 5.927 5.927 0 0 0-.5-2.983c-.718-1.574-2.072-2.845-5-4.834-3.839-2.624-5.5-4.778-5.911-7.623-.359-2.431.083-4.06 2.21-8.563 2.21-4.64 2.79-6.546 3.149-11.269.221-2.983.58-4.2 1.436-5.138.939-.994 1.713-1.353 3.922-1.63 3.646-.5 5.994-1.436 7.844-3.2a6.745 6.745 0 0 0 2.431-5.193l.083-1.63-.939-.994C64.352 51.016 17.976 0 17.755 0c-.083 0 1.077 1.353 2.431 3.066zm21.876 101.342a2.944 2.944 0 0 0-.939-3.922c-1.215-.773-3.066-.414-3.066.635a.731.731 0 0 0 .58.718c.635.359.718.718.221 1.492s-.5 1.492.138 1.989c.995.801 2.348.359 3.066-.912z" class="cls-2" transform="translate(0 0)"/>
        <path id="패스_134" d="M117.869 130.615a6.3 6.3 0 0 0-3.839 4.2 6.186 6.186 0 0 0 .359 3.839c.773.994 1.492 1.271 3.48 1.271 3.922 0 7.264-1.713 7.623-3.784.359-1.713-1.132-4.06-3.2-5.138a7.358 7.358 0 0 0-4.423-.388zm4.558 3.563c.58-.856.359-1.768-.718-2.431-1.933-1.215-4.834-.221-4.834 1.63 0 .939 1.492 1.933 2.928 1.933a4.046 4.046 0 0 0 2.624-1.132z" class="cls-2" transform="translate(-46.943 -63.688)"/>
    </g>
</svg>
