<svg xmlns="http://www.w3.org/2000/svg" width="1092" height="467" viewBox="0 0 1092 467">
    <defs>
        <filter id="사각형_577" width="186" height="56" x="906" y="242" filterUnits="userSpaceOnUse">
            <feOffset/>
            <feGaussianBlur result="blur" stdDeviation="2.5"/>
            <feFlood flood-color="#fff" flood-opacity=".725"/>
            <feComposite in2="blur" operator="in"/>
            <feComposite in="SourceGraphic"/>
        </filter>
        <filter id="사각형_348" width="216" height="56" x="21" y="342" filterUnits="userSpaceOnUse">
            <feOffset/>
            <feGaussianBlur result="blur-2" stdDeviation="2.5"/>
            <feFlood flood-color="#fff" flood-opacity=".725"/>
            <feComposite in2="blur-2" operator="in"/>
            <feComposite in="SourceGraphic"/>
        </filter>
        <filter id="사각형_351" width="217" height="57" x="800.5" y="141.5" filterUnits="userSpaceOnUse">
            <feOffset/>
            <feGaussianBlur result="blur-3" stdDeviation="2.5"/>
            <feFlood flood-color="#fff" flood-opacity=".725"/>
            <feComposite in2="blur-3" operator="in"/>
            <feComposite in="SourceGraphic"/>
        </filter>
        <filter id="사각형_353" width="217" height="57" x="20.5" y="141.5" filterUnits="userSpaceOnUse">
            <feOffset/>
            <feGaussianBlur result="blur-4" stdDeviation="2.5"/>
            <feFlood flood-color="#fff" flood-opacity=".725"/>
            <feComposite in2="blur-4" operator="in"/>
            <feComposite in="SourceGraphic"/>
        </filter>
        <filter id="사각형_345" width="217" height="57" x="435.5" y="141.5" filterUnits="userSpaceOnUse">
            <feOffset/>
            <feGaussianBlur result="blur-5" stdDeviation="2.5"/>
            <feFlood flood-color="#fff" flood-opacity=".725"/>
            <feComposite in2="blur-5" operator="in"/>
            <feComposite in="SourceGraphic"/>
        </filter>
        <filter id="사각형_346" width="217" height="57" x="435.5" y="341.5" filterUnits="userSpaceOnUse">
            <feOffset/>
            <feGaussianBlur result="blur-6" stdDeviation="2.5"/>
            <feFlood flood-color="#fff" flood-opacity=".725"/>
            <feComposite in2="blur-6" operator="in"/>
            <feComposite in="SourceGraphic"/>
        </filter>
        <filter id="사각형_352" width="217" height="57" x="435.5" y="241.5" filterUnits="userSpaceOnUse">
            <feOffset/>
            <feGaussianBlur result="blur-7" stdDeviation="2.5"/>
            <feFlood flood-color="#fff" flood-opacity=".725"/>
            <feComposite in2="blur-7" operator="in"/>
            <feComposite in="SourceGraphic"/>
        </filter>
        <filter id="사각형_347" width="186" height="56" x="726" y="242" filterUnits="userSpaceOnUse">
            <feOffset/>
            <feGaussianBlur result="blur-8" stdDeviation="2.5"/>
            <feFlood flood-color="#fff" flood-opacity=".725"/>
            <feComposite in2="blur-8" operator="in"/>
            <feComposite in="SourceGraphic"/>
        </filter>
        <filter id="사각형_350" width="216" height="56" x="21" y="242" filterUnits="userSpaceOnUse">
            <feOffset/>
            <feGaussianBlur result="blur-9" stdDeviation="2.5"/>
            <feFlood flood-color="#fff" flood-opacity=".725"/>
            <feComposite in2="blur-9" operator="in"/>
            <feComposite in="SourceGraphic"/>
        </filter>
        <style>
            .cls-1{fill:rgba(255,255,255,.08)}.cls-2,.cls-3,.cls-4,.cls-8{fill:none}.cls-2,.cls-8{stroke:#fff}.cls-2,.cls-3{stroke-linecap:round;stroke-miterlimit:10}.cls-2,.cls-3,.cls-8{stroke-width:2px}.cls-3{stroke:#9314b2;stroke-dasharray:5 5}.cls-4{stroke:#a5a5a5}.cls-10,.cls-15,.cls-5,.cls-9{fill:#fff}.cls-5,.cls-9{font-size:20px}.cls-10,.cls-11,.cls-5{font-family:Roboto-Regular,Roboto}.cls-10,.cls-11,.cls-6,.cls-7{font-size:15px}.cls-7{font-family:Roboto-Light,Roboto;font-weight:300}.cls-9{font-family:Roboto-Bold,Roboto;font-weight:700}.cls-11{fill:#00c3ee}.cls-14{fill:#9314b2}
        </style>
    </defs>
    <g id="img_chargingstation" transform="translate(-416 -1306)">
        <path id="사각형_578" d="M0 0H258V422H0z" class="cls-1" transform="translate(416 1351)"/>
        <path id="선_199" d="M200.5 0L0 0" class="cls-2" transform="translate(645.5 1676)"/>
        <path id="사각형_344" d="M0 0H358V422H0z" class="cls-1" transform="translate(1146 1351)"/>
        <path id="선_184" d="M0 0L0 15" class="cls-3" transform="translate(1326 1510)"/>
        <g filter="url(#사각형_577)" transform="matrix(1, 0, 0, 1, 416, 1306)">
            <rect id="사각형_577-2" width="170" height="40" class="cls-4" rx="2" transform="translate(914 250)"/>
        </g>
        <text id="Staking_UnLocked_" class="cls-5" transform="translate(1343 1584)">
            <tspan x="0" y="0">Staking</tspan><tspan y="0" class="cls-6"> </tspan><tspan y="0" class="cls-7">(UnLocked)</tspan>
        </text>
        <g filter="url(#사각형_348)" transform="matrix(1, 0, 0, 1, 416, 1306)">
            <rect id="사각형_348-2" width="200" height="40" class="cls-4" rx="2" transform="translate(29 350)"/>
        </g>
        <text id="Trading" class="cls-5" transform="translate(545 1684)">
            <tspan x="-33.423" y="0">Trading</tspan>
        </text>
        <text id="Liquidity_Contribution" class="cls-5" transform="translate(545 1584)">
            <tspan x="-94.814" y="0">Liquidity Contribution</tspan>
        </text>
        <g filter="url(#사각형_351)" transform="matrix(1, 0, 0, 1, 416, 1306)">
            <rect id="사각형_351-2" width="200" height="40" class="cls-8" rx="2" transform="translate(809 150)"/>
        </g>
        <text id="De-Fi" class="cls-9" transform="translate(1325 1484)">
            <tspan x="-23.911" y="0">De-Fi</tspan>
        </text>
        <g filter="url(#사각형_353)" transform="matrix(1, 0, 0, 1, 416, 1306)">
            <rect id="사각형_353-2" width="200" height="40" class="cls-8" rx="2.277" transform="translate(29 150)"/>
        </g>
        <text id="DEX" class="cls-9" transform="translate(545 1484)">
            <tspan x="-18.477" y="0">DEX</tspan>
        </text>
        <path id="선_185" d="M0 0L137.502 0" class="cls-3" transform="translate(1073.998 1476)"/>
        <path id="선_186" d="M0 0L187 0" class="cls-3" transform="translate(659 1476)"/>
        <path id="선_192" d="M0 0L181 0" class="cls-3" transform="translate(1235 1525)"/>
        <path id="선_193" d="M0 0L482 0" class="cls-3" transform="translate(960 1717)"/>
        <path id="선_194" d="M0 0L0 17" class="cls-3" transform="translate(1235 1525)"/>
        <path id="선_502" d="M0 0L0 17" class="cls-3" transform="translate(1416 1525)"/>
        <text id="In_Out" class="cls-10" transform="translate(1146 1466)">
            <tspan x="-26.294" y="0">In &amp; Out</tspan>
        </text>
        <text id="In_Out-2" class="cls-10" transform="translate(753 1466)">
            <tspan x="-26.294" y="0">In &amp; Out</tspan>
        </text>
        <text id="In_Out-3" class="cls-10" transform="translate(1325 1540.999)">
            <tspan x="-26.294" y="0">In &amp; Out</tspan>
        </text>
        <text id="CRE_" class="cls-11" transform="translate(1146 1664)">
            <tspan x="-24.426" y="0">CRE(%)</tspan>
        </text>
        <text id="_CRE_Carbon_Redemption" class="cls-11" transform="translate(545 1738)">
            <tspan x="-101.726" y="0">*CRE(%) = Carbon Redemption</tspan>
        </text>
        <text id="_CRE_" fill="#00c3ee" font-family="Roboto-Regular, Roboto" font-size="14px" transform="translate(753 1697)">
            <tspan x="-25.813" y="0">*CRE(%)</tspan>
        </text>
        <text id="Reward_Snapshot" fill="#9314b2" font-family="Roboto-Regular, Roboto" font-size="15px" transform="translate(1356 1744)">
            <tspan x="-58.531" y="0">Reward Snapshot</tspan>
        </text>
        <path id="선_197" d="M0 79L0 0" class="cls-2" transform="translate(1208 1597)"/>
        <path id="선_503" d="M0 79L0 0" class="cls-2" transform="translate(1388 1597)"/>
        <path id="선_200" d="M0 0L314 0" class="cls-2" transform="translate(1074 1676)"/>
        <path id="선_201" d="M107.5 0L0 0" class="cls-2" transform="translate(646 1575.999)"/>
        <path id="선_202" d="M0 100L0 0" class="cls-2" transform="translate(753 1576)"/>
        <g id="icon" transform="translate(1211 1468)">
            <path id="패스_114" d="M978.995 3380.584a1 1 0 0 1-.707-1.707l6.293-6.293-6.293-6.293a1 1 0 0 1 1.414-1.414l7 7a1 1 0 0 1 0 1.416l-7 7a1 1 0 0 1-.707.291z" class="cls-14" transform="translate(-977.995 -3364.584)"/>
        </g>
        <g id="icon-2" transform="translate(846 1468)">
            <path id="패스_114-2" d="M978.995 3380.584a1 1 0 0 1-.707-1.707l6.293-6.293-6.293-6.293a1 1 0 0 1 1.414-1.414l7 7a1 1 0 0 1 0 1.416l-7 7a1 1 0 0 1-.707.291z" class="cls-14" transform="translate(-977.995 -3364.584)"/>
        </g>
        <g id="icon-3" transform="translate(1243 1542) rotate(90)">
            <path id="패스_114-3" d="M1 16a1 1 0 0 1-.707-1.707L6.585 8 .293 1.707A1 1 0 0 1 1.707.293l7 7a1 1 0 0 1 0 1.416l-7 7A1 1 0 0 1 1 16z" class="cls-14"/>
        </g>
        <g id="icon-4" transform="translate(846 1668)">
            <path id="패스_114-4" d="M978.995 3380.584a1 1 0 0 1-.707-1.707l6.293-6.293-6.293-6.293a1 1 0 0 1 1.414-1.414l7 7a1 1 0 0 1 0 1.416l-7 7a1 1 0 0 1-.707.291z" class="cls-15" transform="translate(-977.995 -3364.584)"/>
        </g>
        <g id="icon-5" transform="translate(1074 1684) rotate(180)">
            <path id="패스_114-5" d="M1 16a1 1 0 0 1-.707-1.707L6.585 8 .293 1.707A1 1 0 0 1 1.707.293l7 7a1 1 0 0 1 0 1.416l-7 7A1 1 0 0 1 1 16z" class="cls-15"/>
        </g>
        <g id="icon-6" transform="translate(1318 1509.999) rotate(-90)">
            <path id="패스_114-6" d="M1 16a1 1 0 0 1-.707-1.707L6.585 8 .293 1.707A1 1 0 0 1 1.707.293l7 7a1 1 0 0 1 0 1.416l-7 7A1 1 0 0 1 1 16z" class="cls-14"/>
        </g>
        <g id="icon-7" transform="translate(1257 1609.999) rotate(-90)">
            <path id="패스_114-7" d="M1 16a1 1 0 0 1-.707-1.707L6.585 8 .293 1.707A1 1 0 0 1 1.707.293l7 7a1 1 0 0 1 0 1.416l-7 7A1 1 0 0 1 1 16z" class="cls-14"/>
        </g>
        <g id="icon-8" transform="translate(1434 1609.999) rotate(-90)">
            <path id="패스_114-8" d="M1 16a1 1 0 0 1-.707-1.707L6.585 8 .293 1.707A1 1 0 0 1 1.707.293l7 7a1 1 0 0 1 0 1.416l-7 7A1 1 0 0 1 1 16z" class="cls-14"/>
        </g>
        <g filter="url(#사각형_345)" transform="matrix(1, 0, 0, 1, 416, 1306)">
            <rect id="사각형_345-2" width="200" height="40" fill="none" stroke="#ffb900" stroke-width="2px" rx="2" transform="translate(444 150)"/>
        </g>
        <g filter="url(#사각형_346)" transform="matrix(1, 0, 0, 1, 416, 1306)">
            <rect id="사각형_346-2" width="200" height="40" fill="none" stroke="#00c3ee" stroke-width="2px" rx="2" transform="translate(444 350)"/>
        </g>
        <text id="Private_Wallet" fill="#ffb900" font-family="Roboto-Bold, Roboto" font-size="20px" font-weight="700" transform="translate(960 1484)">
            <tspan x="-62.397" y="0">Private Wallet</tspan>
        </text>
        <g filter="url(#사각형_352)" transform="matrix(1, 0, 0, 1, 416, 1306)">
            <rect id="사각형_352-2" width="200" height="40" class="cls-8" rx="2" transform="translate(444 250)"/>
        </g>
        <text id="CEX" class="cls-9" transform="translate(960 1583.999)">
            <tspan x="-18.521" y="0">CEX</tspan>
        </text>
        <path id="선_187" d="M0 0L0 32" class="cls-3" transform="translate(960 1510)"/>
        <path id="선_505" d="M0 0L0 32" class="cls-3" transform="translate(545 1510)"/>
        <path id="선_506" d="M0 0L0 32" class="cls-3" transform="translate(545 1610)"/>
        <path id="선_188" d="M0 0L0 32" class="cls-3" transform="translate(960 1410)"/>
        <path id="선_191" d="M0 0L0 32" class="cls-3" transform="translate(960 1701)"/>
        <text id="In_Out-4" class="cls-10" transform="translate(970 1531)">
            <tspan x="0" y="0">In &amp; Out</tspan>
        </text>
        <text id="Incentive_Centre" fill="#00c3ee" font-family="Roboto-Bold, Roboto" font-size="20px" font-weight="700" transform="translate(960 1684.062)">
            <tspan x="-73.696" y="0">Incentive Centre</tspan>
        </text>
        <text id="CRE_2" class="cls-11" transform="translate(970 1627)">
            <tspan x="0" y="0">CRE(%)</tspan>
        </text>
        <text id="Carbon_Credit" fill="#9314b2" font-family="Roboto-Bold, Roboto" font-size="20px" font-weight="700" transform="translate(960 1768)">
            <tspan x="-62.188" y="0">Carbon Credit</tspan>
        </text>
        <path id="선_196" d="M0 41L0 0" class="cls-2" transform="translate(960 1601)"/>
        <g id="icon-9" transform="translate(968 1542) rotate(90)">
            <path id="패스_114-9" d="M1 16a1 1 0 0 1-.707-1.707L6.585 8 .293 1.707A1 1 0 0 1 1.707.293l7 7a1 1 0 0 1 0 1.416l-7 7A1 1 0 0 1 1 16z" class="cls-14"/>
        </g>
        <g id="icon-10" transform="translate(553 1542) rotate(90)">
            <path id="패스_114-10" d="M1 16a1 1 0 0 1-.707-1.707L6.585 8 .293 1.707A1 1 0 0 1 1.707.293l7 7a1 1 0 0 1 0 1.416l-7 7A1 1 0 0 1 1 16z" class="cls-14"/>
        </g>
        <g id="icon-11" transform="translate(553 1642) rotate(90)">
            <path id="패스_114-11" d="M1 16a1 1 0 0 1-.707-1.707L6.585 8 .293 1.707A1 1 0 0 1 1.707.293l7 7a1 1 0 0 1 0 1.416l-7 7A1 1 0 0 1 1 16z" class="cls-14"/>
        </g>
        <g id="icon-12" transform="translate(968 1442) rotate(90)">
            <path id="패스_114-12" d="M1 16a1 1 0 0 1-.707-1.707L6.585 8 .293 1.707A1 1 0 0 1 1.707.293l7 7a1 1 0 0 1 0 1.416l-7 7A1 1 0 0 1 1 16z" class="cls-14"/>
        </g>
        <g id="icon-13" transform="translate(968 1733) rotate(90)">
            <path id="패스_114-13" d="M1 16a1 1 0 0 1-.707-1.707L6.585 8 .293 1.707A1 1 0 0 1 1.707.293l7 7a1 1 0 0 1 0 1.416l-7 7A1 1 0 0 1 1 16z" class="cls-14"/>
        </g>
        <g id="icon-14" transform="translate(968 1642) rotate(90)">
            <path id="패스_114-14" d="M1 16a1 1 0 0 1-.707-1.707L6.585 8 .293 1.707A1 1 0 0 1 1.707.293l7 7a1 1 0 0 1 0 1.416l-7 7A1 1 0 0 1 1 16z" class="cls-15"/>
        </g>
        <g id="icon-15" transform="translate(952 1509.999) rotate(-90)">
            <path id="패스_114-15" d="M1 16a1 1 0 0 1-.707-1.707L6.585 8 .293 1.707A1 1 0 0 1 1.707.293l7 7a1 1 0 0 1 0 1.416l-7 7A1 1 0 0 1 1 16z" class="cls-14"/>
        </g>
        <g id="icon-16" transform="translate(537 1509.999) rotate(-90)">
            <path id="패스_114-16" d="M1 16a1 1 0 0 1-.707-1.707L6.585 8 .293 1.707A1 1 0 0 1 1.707.293l7 7a1 1 0 0 1 0 1.416l-7 7A1 1 0 0 1 1 16z" class="cls-14"/>
        </g>
        <g id="icon-17" transform="translate(537 1609.999) rotate(-90)">
            <path id="패스_114-17" d="M1 16a1 1 0 0 1-.707-1.707L6.585 8 .293 1.707A1 1 0 0 1 1.707.293l7 7a1 1 0 0 1 0 1.416l-7 7A1 1 0 0 1 1 16z" class="cls-14"/>
        </g>
        <g id="icon-18" transform="translate(952 1409.999) rotate(-90)">
            <path id="패스_114-18" d="M1 16a1 1 0 0 1-.707-1.707L6.585 8 .293 1.707A1 1 0 0 1 1.707.293l7 7a1 1 0 0 1 0 1.416l-7 7A1 1 0 0 1 1 16z" class="cls-14"/>
        </g>
        <g id="icon-19" transform="translate(1424 1542) rotate(90)">
            <path id="패스_114-19" d="M1 16a1 1 0 0 1-.707-1.707L6.585 8 .293 1.707A1 1 0 0 1 1.707.293l7 7a1 1 0 0 1 0 1.416l-7 7A1 1 0 0 1 1 16z" class="cls-14"/>
        </g>
        <g id="icon-20" transform="translate(1073.998 1484) rotate(180)">
            <path id="패스_114-20" d="M1 16a1 1 0 0 1-.707-1.707L6.585 8 .293 1.707A1 1 0 0 1 1.707.293l7 7a1 1 0 0 1 0 1.416l-7 7A1 1 0 0 1 1 16z" class="cls-14"/>
        </g>
        <g id="icon-21" transform="translate(658.999 1484) rotate(180)">
            <path id="패스_114-21" d="M1 16a1 1 0 0 1-.707-1.707L6.585 8 .293 1.707A1 1 0 0 1 1.707.293l7 7a1 1 0 0 1 0 1.416l-7 7A1 1 0 0 1 1 16z" class="cls-14"/>
        </g>
        <text id="Charging_Station" fill="#fff" font-family="Roboto-Black, Roboto" font-size="30px" font-weight="800" transform="translate(1211 1422)">
            <tspan x="0" y="0">Charging Station</tspan>
        </text>
        <g id="그룹_91" transform="translate(916 1306)">
            <path id="패스_168" d="M374.44 6360.045a3.644 3.644 0 0 0-5 5.306 36.93 36.93 0 1 1-50.717 0 3.644 3.644 0 0 0-5-5.306 44.2 44.2 0 1 0 60.707 0z" class="cls-15" transform="translate(-299.885 -6346.675)"/>
            <path id="패스_169" d="M336.922 6388.885a3.548 3.548 0 0 0 3.548-3.549v-30.614a3.548 3.548 0 1 0-7.1 0v30.614a3.548 3.548 0 0 0 3.552 3.549z" class="cls-15" transform="translate(-279.348 -6351.173)"/>
            <path id="패스_170" d="M320.383 6388.885a3.548 3.548 0 0 0 3.548-3.549v-30.614a3.548 3.548 0 1 0-7.1 0v30.614a3.548 3.548 0 0 0 3.552 3.549z" class="cls-15" transform="translate(-289.491 -6351.173)"/>
        </g>
        <path id="선_204" d="M0 107L0 0" class="cls-3" transform="translate(1442 1610)"/>
        <path id="선_504" d="M0 107L0 0" class="cls-3" transform="translate(1265 1610)"/>
        <g filter="url(#사각형_347)" transform="matrix(1, 0, 0, 1, 416, 1306)">
            <rect id="사각형_347-2" width="170" height="40" class="cls-4" rx="2" transform="translate(734 250)"/>
        </g>
        <text id="Staking_Locked_" class="cls-5" transform="translate(1172 1584)">
            <tspan x="0" y="0">Staking</tspan><tspan y="0" class="cls-6"> </tspan><tspan y="0" class="cls-7">(Locked)</tspan>
        </text>
        <g filter="url(#사각형_350)" transform="matrix(1, 0, 0, 1, 416, 1306)">
            <rect id="사각형_350-2" width="200" height="40" class="cls-4" rx="2" transform="translate(29 250)"/>
        </g>
    </g>
</svg>
