<svg xmlns="http://www.w3.org/2000/svg" id="img_pancakeswap" width="120" height="121.136" viewBox="0 0 120 121.136">
    <defs>
        <style>
            .cls-3{fill:#633001}
        </style>
    </defs>
    <path id="패스_483" fill="#fedc90" d="M113.965 28.207c0 18.549-24.606 35.114-54.89 35.114S.4 46.756.4 28.207V19.5h114.878v8.707z" transform="translate(1.114 54.317)"/>
    <path id="패스_484" fill="#d1884f" fill-rule="evenodd" d="M23.641 15.708A10.936 10.936 0 0 1 34.24 2.459c6.057 0 12.189 4.278 12.189 10.334l-1.211 21.842a114.642 114.642 0 0 1 11.735-.757c3.785 0 7.571.379 11.356.757l-.958-22.4C67.352 6.18 72.981.884 79.037.884c6.814 0 13.821 6.432 12.685 13.245L86.1 41.809c15.9 6.057 26.116 17.811 26.116 29.924 0 18.549-24.606 33.691-54.89 33.691S1.026 89.9 1.026 71.355c0-12.114 9.918-22.459 25.817-28.516z" transform="translate(2.858 2.462)"/>
    <path id="패스_485" d="M20.714 25.585c0 4.921-2.65 9.085-6.057 9.085S8.6 30.506 8.6 25.585s2.65-9.085 6.057-9.085 6.057 4.164 6.057 9.085z" class="cls-3" transform="translate(23.955 45.961)"/>
    <path id="패스_486" d="M31.814 25.585c0 4.921-2.65 9.085-6.057 9.085S19.7 30.506 19.7 25.585s2.65-9.085 6.057-9.085 6.057 4.164 6.057 9.085z" class="cls-3" transform="translate(54.874 45.961)"/>
    <path id="패스_487" fill="#633001" fill-rule="evenodd" d="M21.577 18.927A15.86 15.86 0 1 1 53 15.9v19.684c2.271 0 4.543-.379 6.814-.379a36.727 36.727 0 0 1 6.435.379V15.9A16 16 0 0 1 82.145 0c9.842 0 17.413 9.085 15.9 18.927L93.88 42.019C108.644 48.454 120 59.811 120 73.817v8.707c0 11.735-7.571 21.577-18.549 28.013-10.978 6.814-25.363 10.6-41.64 10.6s-30.662-3.785-41.64-10.6C7.571 104.1 0 94.259 0 82.524v-8.707c0-14.006 10.978-25.363 25.741-31.8zM88.2 45.047l4.921-27.256A11.189 11.189 0 0 0 82.145 4.543a10.986 10.986 0 0 0-10.978 10.978V40.5a21.585 21.585 0 0 0-4.921-.379c-2.271 0-4.164-.379-6.435-.379a41.143 41.143 0 0 0-6.811.384c-1.514 0-3.407.379-4.921.379V15.9A10.915 10.915 0 1 0 26.5 18.17l4.92 27.256c-15.9 6.057-26.5 16.656-26.5 28.77V82.9c0 18.549 24.606 33.691 54.89 33.691s54.89-15.14 54.89-33.691v-8.7c.379-12.5-10.221-23.1-26.5-29.153z"/>
</svg>
