<svg xmlns="http://www.w3.org/2000/svg" width="97.495" height="150" viewBox="0 0 97.495 150">
    <g opacity="0.3">
        <path fill="#fff" d="M-939.574 723.9c0-21.532-10.781-40.055-18.977-46.088-.039-.012-.623-.341-.572.518 0 .014-.012.014-.012.026-.675 41.586-22.5 52.852-34.5 68.037-27.694 35.037-1.937 73.448 24.288 80.542 14.678 3.97-3.39-7.029-5.716-30.269-2.816-28.087 35.489-49.518 35.489-72.766z" transform="translate(0) translate(1005.56 -677.736)"/>
        <path fill="#06943f" d="M-855.888 820.336c-.169-.114-.4-.19-.571.076-.455 5.235-5.95 16.438-12.911 26.716-23.614 34.872-10.158 51.689-2.585 60.716 4.391 5.248 0 0 10.976-5.361.858-.417 21.432-11.645 23.652-37.224 2.17-24.768-13.118-40.383-18.561-44.923z" transform="translate(0) translate(934.612 -760.016)"/>
    </g>
</svg>
