<svg xmlns="http://www.w3.org/2000/svg" width="478" height="171.133" viewBox="0 0 478 171.133">
    <defs>
        <style>
            .cls-1{fill:#cb0017}.cls-2{fill:#fff}
        </style>
    </defs>
    <g id="img_panda_docs" transform="translate(534.579 -60.931)">
        <g id="그룹_119" transform="translate(-534.579 60.931)">
            <path id="패스_438" d="M-346.13 124.037a46.031 46.031 0 0 0-46.029-45.821 46.034 46.034 0 0 0-46.034 46.035 46.034 46.034 0 0 0 46.034 46.034A45.8 45.8 0 0 0-367.327 163v.005l21.219 7.276v-46.244zm-46.029 25.038a24.824 24.824 0 0 1-24.824-24.824 24.824 24.824 0 0 1 24.824-24.825 24.825 24.825 0 0 1 24.825 24.825 24.824 24.824 0 0 1-24.825 24.824z" class="cls-1" transform="translate(534.547 -60.937)"/>
            <path id="패스_439" d="M-56.481 124.037a46.032 46.032 0 0 0-46.029-45.821 46.034 46.034 0 0 0-46.035 46.035 46.034 46.034 0 0 0 46.035 46.034A45.8 45.8 0 0 0-77.679 163v.005l21.22 7.276v-46.244zm-46.029 25.038a24.824 24.824 0 0 1-24.825-24.824 24.825 24.825 0 0 1 24.825-24.825 24.824 24.824 0 0 1 24.824 24.825 24.824 24.824 0 0 1-24.824 24.824z" class="cls-1" transform="translate(534.452 -60.937)"/>
            <path id="패스_440" d="M-248.461 124.037c0 .018 0 .036 0 0A46.032 46.032 0 0 0-294.5 78.216a46.032 46.032 0 0 0-46.029 45.821c0 .072-.005-.071-.005 0v38.974h21.219v-38.974-.026A24.821 24.821 0 0 1-294.5 99.426a24.644 24.644 0 0 1 24.825 24.611l.007 38.967v.005l21.22 7.276v-46.248z" class="cls-1" transform="translate(534.515 -60.937)"/>
            <path id="패스_441" d="M-488.528 78.216a46.032 46.032 0 0 0-46.029 45.821h-.022v63.358l21.219-7.276V163a45.8 45.8 0 0 0 24.832 7.281 46.034 46.034 0 0 0 46.035-46.034 46.034 46.034 0 0 0-46.035-46.031zm0 70.859a24.824 24.824 0 0 1-24.824-24.824 24.824 24.824 0 0 1 24.824-24.825 24.825 24.825 0 0 1 24.828 24.825 24.824 24.824 0 0 1-24.828 24.824z" class="cls-1" transform="translate(534.579 -60.937)"/>
            <path id="패스_442" d="M-152.416 60.931l-21.219 7.276v17.115a45.8 45.8 0 0 0-24.832-7.281 46.034 46.034 0 0 0-46.033 46.034 46.034 46.034 0 0 0 46.035 46.035 46.031 46.031 0 0 0 46.029-45.821h.022zm-46.051 87.969a24.825 24.825 0 0 1-24.825-24.825 24.824 24.824 0 0 1 24.825-24.824 24.824 24.824 0 0 1 24.824 24.824 24.824 24.824 0 0 1-24.824 24.825z" class="cls-1" transform="translate(534.483 -60.931)"/>
        </g>
        <g id="그룹_122" transform="translate(-534.579 204.637)">
            <g id="그룹_121">
                <circle id="타원_28" cx="3.873" cy="3.873" r="3.873" class="cls-2" transform="translate(359.369 9.841)"/>
                <path id="패스_443" d="M-520.992 223.749h-8.152v7.651h-5.434v-26.043h13.587c14.077 0 14.119 18.392-.001 18.392zm-8.152-4.5h8.152c6.957 0 6.916-9.214 0-9.214h-8.152z" class="cls-2" transform="translate(534.579 -204.684)"/>
                <path id="패스_444" d="M-447.1 205.319h5.434v26.045h-3.376v.038l-15.15-17.575v17.537h-5.434v-26.007h4.4l14.121 16.125z" class="cls-2" transform="translate(534.556 -204.684)"/>
                <path id="패스_445" d="M-403.387 218.176c.123 6.576-4.323 13.227-14.409 13.227h-11.321v-26.009h11.317c9.884 0 14.29 6.354 14.413 12.782zm-20.338 8.508h5.929c6.546 0 9.14-4.31 9.016-8.545-.124-4.051-2.759-8.1-9.016-8.1h-5.929z" class="cls-2" transform="translate(534.544 -204.684)"/>
                <g id="그룹_120" transform="translate(177.147)">
                    <path id="패스_446" d="M-312.671 204.684a14.3 14.3 0 0 0-9.946 4.048 13.614 13.614 0 0 0-4.106 9.666 13.618 13.618 0 0 0 4.106 9.667 14.16 14.16 0 0 0 9.946 4.047 14.154 14.154 0 0 0 9.984-4.048 13.611 13.611 0 0 0 4.107-9.666 13.621 13.621 0 0 0-4.113-9.673 14.286 14.286 0 0 0-9.978-4.041zm0 22.5a9.1 9.1 0 0 1-6.349-2.609 8.539 8.539 0 0 1-2.652-6.182 8.548 8.548 0 0 1 2.657-6.187 9.091 9.091 0 0 1 6.344-2.6 9.325 9.325 0 0 1 6.421 2.6 8.656 8.656 0 0 1 2.619 6.187 8.647 8.647 0 0 1-2.614 6.182 9.329 9.329 0 0 1-6.426 2.614z" class="cls-2" transform="translate(357.363 -204.684)"/>
                    <path id="패스_447" d="M-334.237 205.543l-12.8 12.447 13.873 13.116v.3h-6.711l-12.062-11.518V231.4h-5.434v-26.006h5.434v11l10.95-11h6.752z" class="cls-2" transform="translate(357.373 -204.684)"/>
                </g>
                <path id="패스_448" d="M-261.058 231.4h-6.463l-8.4-8.694h-5.228v8.694h-5.434v-26.006h13.708c6.794.038 10.375 4.124 10.375 8.62 0 3.567-1.811 7.172-7.287 8.173l8.728 8.881zm-20.09-21.438v8.322h8.274c3.459 0 4.94-2.08 4.94-4.162s-1.522-4.161-4.94-4.161z" class="cls-2" transform="translate(534.497 -204.684)"/>
                <path id="패스_449" d="M-229.407 231.4h-21.572v-26.006h21.572v4.755h-16.18v5.982h16.18v4.57h-16.18v5.87h16.18z" class="cls-2" transform="translate(534.485 -204.684)"/>
                <path id="패스_450" d="M-480.924 231.4h5.908l-12.928-26.008h-5.928L-506.8 231.4h5.887l.827-1.641 2.259-4.6h13.864zm-9.984-20.546l4.706 9.735h-9.411z" class="cls-2" transform="translate(534.57 -204.684)"/>
                <path id="패스_451" d="M-372.629 231.4h5.907l-12.928-26.008h-5.928L-398.5 231.4h5.886l.827-1.641 2.259-4.6h13.864zm-9.985-20.546l4.706 9.735h-9.411z" class="cls-2" transform="translate(534.534 -204.684)"/>
                <path id="패스_452" d="M-194.361 231.4h5.908l-12.928-26.008h-5.928l-12.926 26.008h5.887l.827-1.641 2.259-4.6h13.862zm-9.984-20.546l4.705 9.735h-9.41z" class="cls-2" transform="translate(534.475 -204.684)"/>
                <path id="패스_453" d="M-134.194 207.393a11.075 11.075 0 0 1 7.891 3.234 10.876 10.876 0 0 1 2.252 3.231l.191.425h2.175l-.431-1a13.077 13.077 0 0 0-2.771-4.057 13.083 13.083 0 0 0-9.308-3.831 13.083 13.083 0 0 0-9.308 3.831 12.876 12.876 0 0 0-3.848 9.156 12.917 12.917 0 0 0 3.848 9.192 13.087 13.087 0 0 0 9.308 3.831 13.087 13.087 0 0 0 9.308-3.831 13.077 13.077 0 0 0 2.771-4.057l.431-1h-2.175l-.191.425a10.81 10.81 0 0 1-2.252 3.195 11.086 11.086 0 0 1-7.891 3.27 11.1 11.1 0 0 1-7.9-3.274 10.8 10.8 0 0 1-3.275-7.748 10.925 10.925 0 0 1 3.28-7.751 11.074 11.074 0 0 1 7.895-3.241z" class="cls-2" transform="translate(534.451 -204.684)"/>
                <path id="패스_454" d="M-101.519 205.393a13.353 13.353 0 0 0-9.376 3.814 12.778 12.778 0 0 0-3.912 9.158 12.77 12.77 0 0 0 3.908 9.152 13.351 13.351 0 0 0 9.38 3.818 13.349 13.349 0 0 0 9.412-3.813 12.775 12.775 0 0 0 3.911-9.157 12.771 12.771 0 0 0-3.912-9.158 13.345 13.345 0 0 0-9.411-3.814zm8.045 20.723a11.411 11.411 0 0 1-8.045 3.278 11.375 11.375 0 0 1-8.011-3.277 10.827 10.827 0 0 1-3.317-7.752 10.826 10.826 0 0 1 3.317-7.753 11.37 11.37 0 0 1 8.011-3.277 11.413 11.413 0 0 1 8.045 3.276 10.81 10.81 0 0 1 3.283 7.754 10.8 10.8 0 0 1-3.283 7.751z" class="cls-2" transform="translate(534.44 -204.684)"/>
                <path id="패스_455" d="M-57.544 205.393l-10.407 14.85-10.378-14.85h-1.112v26h1.924v-21.549l8.988 12.927h1.188l8.989-12.928V231.4h1.924v-26z" class="cls-2" transform="translate(534.429 -204.684)"/>
            </g>
        </g>
    </g>
</svg>
