<svg xmlns="http://www.w3.org/2000/svg" width="50" height="50" viewBox="0 0 50 50">
    <g transform="translate(-456 -818)">
        <circle cx="25" cy="25" r="25" fill="#fff" transform="translate(456 818)"/>
        <g>
            <path d="M-185.37 572.093a1.213 1.213 0 0 0-1.713.048 1.213 1.213 0 0 0 .048 1.713 12.2 12.2 0 0 1 3.857 8.948 12.324 12.324 0 0 1-12.31 12.31A12.323 12.323 0 0 1-207.8 582.8a12.2 12.2 0 0 1 3.856-8.948 1.211 1.211 0 0 0 .048-1.713 1.213 1.213 0 0 0-1.713-.048 14.6 14.6 0 0 0-4.616 10.71 14.751 14.751 0 0 0 14.734 14.734 14.751 14.751 0 0 0 14.737-14.735 14.6 14.6 0 0 0-4.616-10.707z" transform="translate(466 828) translate(210.222 -567.536)"/>
            <path d="M-191.558 580.538a1.212 1.212 0 0 0 1.212-1.212V568.87a1.212 1.212 0 0 0-1.212-1.212 1.212 1.212 0 0 0-1.212 1.212v10.456a1.212 1.212 0 0 0 1.212 1.212z" transform="translate(466 828) translate(210.74 -567.658)"/>
            <path d="M-200.177 580.538a1.212 1.212 0 0 0 1.212-1.212V568.87a1.212 1.212 0 0 0-1.212-1.212 1.212 1.212 0 0 0-1.212 1.212v10.456a1.212 1.212 0 0 0 1.212 1.212z" transform="translate(466 828) translate(210.484 -567.658)"/>
        </g>
    </g>
</svg>
