<svg xmlns="http://www.w3.org/2000/svg" width="80" height="80" viewBox="0 0 80 80">
    <g transform="translate(-1175 -1900)">
        <circle cx="40" cy="40" r="40" fill="#fff" transform="translate(1175 1900)"/>
        <g>
            <path fill="#00023e" d="M-983.564 693.123c0-7.178-3.594-13.352-6.326-15.362-.013 0-.208-.114-.191.173v.009c-.225 13.862-7.5 17.617-11.5 22.679-9.231 11.679-.645 24.483 8.1 26.847 4.893 1.323-1.13-2.343-1.905-10.09-.946-9.362 11.822-16.506 11.822-24.256z" transform="translate(72.693 242.836) translate(2131.617 994.429)"/>
            <path fill="#06943f" d="M-873.755 820.266c-.056-.038-.134-.063-.19.025-.152 1.745-1.983 5.479-4.3 8.905-7.871 11.624-3.386 17.23-.862 20.239 1.464 1.749 0 0 3.659-1.787a16.073 16.073 0 0 0 7.884-12.408 17.762 17.762 0 0 0-6.191-14.974z" transform="translate(72.693 242.836) translate(2026.055 872.005)"/>
        </g>
    </g>
</svg>
