<svg xmlns="http://www.w3.org/2000/svg" width="50" height="50" viewBox="0 0 50 50">
    <g transform="translate(-1175 -2201)">
        <circle cx="25" cy="25" r="25" fill="#fff" transform="translate(1175 2201)"/>
        <g>
            <path fill="#00023e" d="M-992.362 686.968c0-4.307-2.156-8.011-3.8-9.217-.008 0-.125-.068-.115.1v.005c-.135 8.317-4.5 10.57-6.9 13.607-5.539 7.007-.387 14.69 4.858 16.108 2.936.794-.678-1.406-1.143-6.054-.561-5.617 7.1-9.898 7.1-14.549z" transform="translate(63.942 538.836) translate(2131.617 994.429)"/>
            <path fill="#008cd6" d="M-877.328 820.253c-.034-.023-.08-.038-.114.015a15.613 15.613 0 0 1-2.582 5.343c-4.723 6.974-2.032 10.338-.517 12.143.878 1.05 0 0 2.2-1.072a9.644 9.644 0 0 0 4.73-7.445 10.657 10.657 0 0 0-3.717-8.984z" transform="translate(63.942 538.836) translate(2019.131 863.976)"/>
        </g>
    </g>
</svg>
